<svg width="18" height="18" viewBox="0 0 18 18" fill="none" xmlns="http://www.w3.org/2000/svg">
<path fill-rule="evenodd" clip-rule="evenodd" d="M18 8.98755C18 9.59618 17.9381 10.204 17.8163 10.7965C17.6977 11.3749 17.5219 11.9427 17.2915 12.4855C17.0666 13.0188 16.7876 13.5326 16.4615 14.0118C16.1402 14.488 15.7701 14.9347 15.3636 15.342C14.9562 15.7474 14.5079 16.1165 14.032 16.4391C13.5512 16.763 13.0366 17.0416 12.5031 17.2676C11.9595 17.4967 11.3903 17.6722 10.8124 17.7907C10.2191 17.9127 9.60915 17.975 8.99963 17.975C8.38958 17.975 7.7796 17.9127 7.18721 17.7907C6.60843 17.6722 6.0393 17.4967 5.4961 17.2676C4.96259 17.0416 4.4475 16.763 3.96673 16.4391C3.49078 16.1165 3.04251 15.7474 2.63599 15.342C2.22905 14.9347 1.859 14.488 1.53731 14.0118C1.21297 13.5326 0.933442 13.0187 0.707568 12.4855C0.477254 11.9427 0.301049 11.3748 0.181947 10.7965C0.0615414 10.204 0 9.59618 0 8.98755C0 8.3784 0.0615062 7.76933 0.181982 7.17814C0.301085 6.59974 0.47729 6.03101 0.707603 5.48905C0.93348 4.95543 1.213 4.44112 1.53733 3.96188C1.85903 3.48532 2.22909 3.03943 2.63603 2.63174C3.04255 2.22623 3.49081 1.85807 3.96676 1.53596C4.44754 1.21076 4.96262 0.93213 5.49613 0.705667C6.03934 0.476108 6.60843 0.300158 7.18724 0.182563C7.77968 0.0614526 8.38965 0 8.99963 0C9.60915 0 10.2191 0.0614526 10.8125 0.182563C11.3903 0.300193 11.9595 0.476143 12.5031 0.705667C13.0366 0.932092 13.5513 1.21076 14.0321 1.53596C14.508 1.85807 14.9563 2.22623 15.3637 2.63174C15.7702 3.03943 16.1402 3.48532 16.4615 3.96188C16.7876 4.44112 17.0666 4.95547 17.2915 5.48905C17.5219 6.03101 17.6977 6.59974 17.8163 7.17814C17.9381 7.76933 18 8.3784 18 8.98755ZM5.72019 2.04544C3.57684 3.05612 1.97715 5.02826 1.47834 7.40504C1.68097 7.4068 4.88386 7.44719 8.57415 6.46809C7.24385 4.10799 5.8226 2.18196 5.72019 2.04544ZM9.2109 7.64992C5.25347 8.83305 1.45593 8.74793 1.31971 8.74268C1.31749 8.82518 1.31354 8.90498 1.31354 8.98755C1.31354 10.9592 2.05845 12.7567 3.28283 14.1158C3.28019 14.1119 5.38355 10.3856 9.5313 9.04635C9.6315 9.01298 9.7335 8.98312 9.83453 8.95417C9.64163 8.51797 9.4311 8.08087 9.2109 7.64992ZM14.0756 3.22726C12.7223 2.03578 10.9456 1.31305 8.99955 1.31305C8.3751 1.31305 7.76902 1.38853 7.18848 1.52808C7.3036 1.68257 8.74733 3.59503 10.0618 6.00511C12.9619 4.91944 14.0566 3.25533 14.0756 3.22726ZM10.3585 10.226C10.3414 10.2316 10.3242 10.2365 10.3075 10.2426C5.77261 11.8213 4.29169 15.0027 4.27567 15.0374C5.5805 16.0507 7.2171 16.662 8.99963 16.662C10.064 16.662 11.0779 16.4456 12.0003 16.0538C11.8865 15.3832 11.44 13.0328 10.3585 10.226ZM13.2946 15.3525C15.0204 14.1895 16.246 12.3429 16.588 10.204C16.4298 10.153 14.2794 9.47325 11.7985 9.87045C12.8067 12.6369 13.2164 14.89 13.2946 15.3525ZM10.6534 7.14875C10.8317 7.51477 11.0045 7.8873 11.1641 8.26163C11.2208 8.39595 11.2761 8.52765 11.3302 8.65928C13.9705 8.32748 16.5718 8.8857 16.683 8.9085C16.6654 7.08906 16.0136 5.41925 14.9352 4.11196C14.9207 4.13254 13.688 5.91119 10.6534 7.14875Z" fill="black"/>
</svg>
