<svg width="18" height="18" viewBox="0 0 18 18" fill="none" xmlns="http://www.w3.org/2000/svg">
<path fill-rule="evenodd" clip-rule="evenodd" d="M9.00082 0C6.55657 0 6.24982 0.0106876 5.2898 0.0543755C4.33167 0.0982507 3.67766 0.24994 3.10541 0.472505C2.51347 0.702383 2.01134 1.00988 1.51108 1.51033C1.01045 2.01059 0.702945 2.51271 0.472318 3.10447C0.24919 3.67691 0.0973132 4.33111 0.0541881 5.28886C0.0112501 6.24888 0 6.55582 0 9.00008C0 11.4444 0.0108752 11.7502 0.0543756 12.7102C0.0984383 13.6683 0.250127 14.3223 0.472505 14.8946C0.70257 15.4865 1.01007 15.9887 1.51051 16.4889C2.01058 16.9895 2.51271 17.2978 3.10428 17.5276C3.67691 17.7502 4.33111 17.9019 5.28905 17.9458C6.24907 17.9895 6.55563 18.0002 8.9997 18.0002C11.4442 18.0002 11.75 17.9895 12.71 17.9458C13.6681 17.9019 14.3229 17.7502 14.8955 17.5276C15.4873 17.2978 15.9887 16.9895 16.4888 16.4889C16.9894 15.9887 17.2969 15.4865 17.5275 14.8948C17.7488 14.3223 17.9006 13.6682 17.9456 12.7104C17.9887 11.7504 18 11.4444 18 9.00008C18 6.55582 17.9887 6.24907 17.9456 5.28905C17.9006 4.33092 17.7488 3.67691 17.5275 3.10466C17.2969 2.51271 16.9894 2.01059 16.4888 1.51033C15.9881 1.0097 15.4875 0.702195 14.895 0.472505C14.3212 0.24994 13.6668 0.0982507 12.7087 0.0543755C11.7487 0.0106876 11.4431 0 8.99805 0H9.00082ZM8.19345 1.62187C8.43307 1.62149 8.70045 1.62187 9.00082 1.62187C11.4038 1.62187 11.6887 1.63049 12.6376 1.67362C13.5151 1.71374 13.9913 1.86037 14.3086 1.98356C14.7287 2.14669 15.028 2.34169 15.3429 2.65669C15.6579 2.97169 15.8529 3.27169 16.0164 3.6917C16.1395 4.00858 16.2864 4.48483 16.3263 5.36234C16.3694 6.3111 16.3788 6.59611 16.3788 8.99798C16.3788 11.3999 16.3694 11.6849 16.3263 12.6337C16.2862 13.5112 16.1395 13.9874 16.0164 14.3043C15.8533 14.7243 15.6579 15.0234 15.3429 15.3382C15.0279 15.6532 14.7288 15.8482 14.3086 16.0113C13.9917 16.1351 13.5151 16.2813 12.6376 16.3214C11.6888 16.3645 11.4038 16.3739 9.00082 16.3739C6.59759 16.3739 6.31278 16.3645 5.36401 16.3214C4.48651 16.2809 4.01025 16.1343 3.69281 16.0111C3.2728 15.848 2.97281 15.653 2.65781 15.338C2.3428 15.023 2.1478 14.7238 1.9843 14.3035C1.8611 13.9867 1.71429 13.5104 1.67435 12.6329C1.63123 11.6842 1.6226 11.3992 1.6226 8.99572C1.6226 6.59236 1.63123 6.30885 1.67435 5.36009C1.71448 4.48259 1.8611 4.00633 1.9843 3.68908C2.14742 3.26907 2.3428 2.96907 2.65781 2.65406C2.97281 2.33906 3.2728 2.14406 3.69281 1.98055C4.01006 1.8568 4.48651 1.71055 5.36401 1.67024C6.19427 1.63274 6.51603 1.62149 8.19345 1.61962V1.62187ZM13.805 3.11626C13.2087 3.11626 12.725 3.59945 12.725 4.1959C12.725 4.79216 13.2087 5.27591 13.805 5.27591C14.4013 5.27591 14.885 4.79216 14.885 4.1959C14.885 3.59964 14.4013 3.11626 13.805 3.11626ZM9.00082 4.37815C6.44839 4.37815 4.37894 6.44761 4.37894 9.00008C4.37894 11.5526 6.44839 13.621 9.00082 13.621C11.5533 13.621 13.622 11.5526 13.622 9.00008C13.622 6.44761 11.5533 4.37815 9.00082 4.37815ZM9.00082 6.00004C10.6576 6.00004 12.0008 7.34312 12.0008 9.00008C12.0008 10.6568 10.6576 12.0001 9.00082 12.0001C7.34387 12.0001 6.00079 10.6568 6.00079 9.00008C6.00079 7.34312 7.34387 6.00004 9.00082 6.00004Z" fill="black"/>
</svg>
