<svg width="125" height="27" viewBox="0 0 125 27" fill="none" xmlns="http://www.w3.org/2000/svg">
<path d="M0.123367 0.449585V3.22892H11.7342L7.29304 10.9695H10.7448L15.3408 2.93382V0.449585H0.123367ZM3.59693 23.4656L7.98485 15.8073H4.52821L0 23.6954V26.2449H15.8391V23.4656H3.59693Z" fill="white"/>
<path d="M33.2892 3.2773C31.625 1.39216 29.2867 0.449585 26.2744 0.449585H20.1255V26.2449H25.9019C29.1142 26.2449 31.5654 25.3153 33.2554 23.4559C34.9454 21.5966 35.7896 18.9599 35.788 15.546V11.2113C35.788 7.80551 34.9551 5.16083 33.2892 3.2773ZM32.5805 15.6984C32.5563 18.2625 32.0193 20.1976 30.9695 21.5038C29.9197 22.8101 28.2539 23.464 25.972 23.4656H23.3693V3.22892H26.272C28.3861 3.22892 29.9656 3.86429 31.0106 5.13503C32.0556 6.40577 32.5781 8.40056 32.5781 11.1194L32.5805 15.6984Z" fill="white"/>
<path d="M44.092 23.4657V14.3222H53.2162V11.5405H44.092V3.22902H54.5442V0.447266H40.8362V26.2451H54.7087V23.4657H44.092Z" fill="white"/>
<path d="M71.7619 14.8712C70.6685 13.6423 68.8527 12.6087 66.3145 11.7701C64.6841 11.1896 63.4747 10.5324 62.6861 9.79871C62.3081 9.45249 62.0083 9.02955 61.8068 8.55818C61.6053 8.0868 61.5068 7.57785 61.5178 7.06534C61.5178 5.74138 61.8782 4.71253 62.599 3.9788C63.3199 3.24506 64.3358 2.87819 65.6469 2.87819C67.0869 2.87819 68.1908 3.31521 68.9584 4.18924C69.726 5.06328 70.1098 6.29775 70.1098 7.89262H73.3705C73.3822 6.51046 73.0497 5.14712 72.4029 3.92559C71.7855 2.74185 70.8376 1.76286 69.6744 1.10754C68.4417 0.419447 67.0487 0.0705537 65.6372 0.0964347C63.4263 0.0964347 61.6395 0.757609 60.2769 2.07995C58.9142 3.40229 58.2321 5.08586 58.2305 7.13065C58.2121 8.22237 58.4612 9.302 58.9561 10.2752C59.4802 11.2438 60.2191 12.0796 61.1162 12.7183C62.0838 13.4343 63.4747 14.1164 65.2889 14.7647C67.1031 15.413 68.3609 16.0806 69.0624 16.7676C69.759 17.4513 70.1074 18.4374 70.1074 19.7259C70.1074 21.0144 69.7469 22.0126 69.0261 22.7205C68.3069 23.4527 67.2321 23.8187 65.8017 23.8187C64.2681 23.8187 63.0586 23.3761 62.1733 22.4907C61.288 21.6054 60.8421 20.3653 60.8356 18.7704H57.5798C57.5534 20.2065 57.9306 21.6212 58.6683 22.8536C59.3893 24.0357 60.4266 24.9926 61.6629 25.616C62.9473 26.2755 64.3725 26.6133 65.8162 26.6005C68.1561 26.6005 70.005 25.9716 71.3628 24.7137C72.7206 23.4559 73.3995 21.7812 73.3995 19.6896C73.3995 17.7061 72.8536 16.1 71.7619 14.8712Z" fill="white"/>
<path d="M77.7948 0.449585V26.2449H81.0361V0.449585H77.7948Z" fill="white"/>
<path d="M94.9087 16.1822H99.6208V22.1086L99.137 22.5488C98.2275 23.3955 96.8987 23.8188 95.1506 23.8188C93.2977 23.8188 91.8746 23.1245 90.8812 21.7361C89.8879 20.3476 89.392 18.3544 89.3936 15.7565V10.4857C89.4307 7.82973 89.8798 5.89459 90.7409 4.68029C91.6021 3.466 92.9599 2.86127 94.8144 2.86611C96.3625 2.86611 97.5171 3.31763 98.2783 4.22069C99.0394 5.12376 99.4853 6.37837 99.6159 7.98453H102.872C102.732 5.44628 101.967 3.49503 100.579 2.13076C99.1902 0.766491 97.268 0.0843506 94.812 0.0843506C91.9286 0.0843506 89.7645 0.98499 88.3196 2.78628C86.8747 4.58756 86.149 7.29514 86.1426 10.909V15.9887C86.1797 19.3655 86.9916 21.9788 88.5784 23.8284C90.1652 25.6781 92.3495 26.6021 95.1313 26.6005C98.2743 26.6005 100.66 25.6499 102.289 23.7486L102.872 23.0399V13.4005H94.9087V16.1822Z" fill="white"/>
<path d="M121.785 0.449585V20.4178L111.42 0.449585H108.16V26.2449H111.42V6.37351L121.739 26.2449H125V0.449585H121.785Z" fill="white"/>
</svg>
