<svg width="40" height="46" viewBox="0 0 40 46" fill="none" xmlns="http://www.w3.org/2000/svg">
<path d="M35.0172 34.8555C34.5771 36.5026 34.3916 38.0417 33.7605 39.3649C32.7252 41.5407 30.8068 42.6424 28.3929 42.8085C27.7064 42.8556 27.0088 42.8501 26.3251 42.839C24.941 42.8141 23.7756 42.7836 22.7513 44.2563C21.4475 46.1304 18.5769 45.9172 17.0433 44.1733C16.674 43.7624 16.3941 43.2793 16.2212 42.7546C16.0484 42.23 15.9865 41.6751 16.0393 41.1252C16.0921 40.5753 16.2586 40.0424 16.5281 39.5602C16.7977 39.078 17.1645 38.6571 17.6052 38.324C19.4461 36.9399 22.1119 37.3884 23.2994 39.34C23.6953 39.9905 24.0911 40.2341 24.8385 40.1704C26.0067 40.0957 27.1832 40.1704 28.3514 40.1123C29.119 40.0779 29.855 39.797 30.4504 39.3114C31.0457 38.8257 31.4687 38.1611 31.6566 37.4161C30.2725 37.5489 28.977 37.4299 27.9223 36.3918C27.5031 35.9804 27.1735 35.4866 26.9544 34.9416C26.7353 34.3966 26.6313 33.8122 26.649 33.225C26.6379 29.8127 26.6379 26.3986 26.649 22.9827C26.649 20.9148 27.7424 19.3508 29.4531 18.8525C31.3715 18.2989 32.9854 18.9715 34.2089 20.7902C34.3975 21.0449 34.6753 21.2189 34.9868 21.2774C35.7287 21.3743 36.4816 21.3716 37.3093 21.4103C37.5501 14.8275 35.2248 9.3714 29.7327 5.70907C23.4849 1.54015 16.8661 1.45158 10.5186 5.54575C4.84381 9.25791 2.46316 14.7473 2.66801 21.438C3.49847 21.402 4.25696 21.4103 5.0016 21.3162C5.31081 21.2632 5.58701 21.0913 5.77116 20.8373C6.89782 19.0795 8.49784 18.3459 10.3193 18.8387C12.1408 19.3314 13.3173 20.8318 13.3339 22.9051C13.3588 26.3516 13.3643 29.798 13.3339 33.2444C13.3145 35.423 12.1796 36.904 10.2889 37.3967C8.51722 37.8507 6.91997 37.0811 5.75179 35.3233C5.56355 35.0465 5.04866 34.9468 4.66388 34.8416C3.65903 34.5648 2.52959 34.5178 1.65484 34.0112C0.489429 33.3496 0.0105302 32.0928 0.0160666 30.7364C0.0160666 26.6727 -0.0614433 22.6006 0.124026 18.5425C0.470052 10.8994 5.93725 3.71042 13.165 1.26056C20.988 -1.39138 28.0054 0.153284 33.9792 5.77827C38.1315 9.70359 39.9972 14.7334 40 20.4498C40 23.6922 40 26.9329 40 30.1717C40 33.297 38.5578 34.7475 35.3992 34.8306C35.2715 34.8309 35.1439 34.8392 35.0172 34.8555V34.8555ZM10.6847 28.0374C10.6847 26.3765 10.6847 24.7377 10.6847 23.0879C10.6847 21.9806 10.192 21.366 9.34768 21.3466C8.50338 21.3273 8.01895 21.9944 8.01618 23.0823C8.01618 26.4171 8.01618 29.7528 8.01618 33.0894C8.01618 34.1967 8.50338 34.8112 9.34491 34.8112C10.1864 34.8112 10.6737 34.2326 10.682 33.0921C10.682 31.4035 10.6709 29.7232 10.6709 28.0374H10.6847ZM31.9999 28.1454C31.9999 26.4623 31.9999 24.7792 31.9999 23.0962C31.9999 21.9889 31.5016 21.3577 30.6712 21.3494C29.8905 21.3494 29.3396 22.0359 29.3369 23.0989C29.3258 26.4318 29.3258 29.7648 29.3369 33.0977C29.3369 34.2548 29.8019 34.8084 30.6739 34.8084C31.5459 34.8084 31.9944 34.2299 32.0027 33.0921C31.9944 31.4423 31.9861 29.7952 31.9861 28.1454H31.9999ZM5.26735 32.1039V24.0761C3.05279 23.9156 2.67077 24.2671 2.67077 26.3405V29.8506C2.65693 31.9378 3.06939 32.3115 5.25351 32.1039H5.26735ZM34.7902 24.0456V32.126C36.9716 32.2617 37.3398 31.9184 37.3425 29.8644V26.3543C37.3259 24.2533 36.9771 23.9294 34.7764 24.0456H34.7902ZM21.3174 41.5269C21.3269 41.1825 21.1993 40.8485 20.9626 40.5983C20.7259 40.3481 20.3994 40.2021 20.0551 40.1926C19.7108 40.183 19.3768 40.3107 19.1265 40.5474C18.8763 40.7841 18.7304 41.1106 18.7208 41.4549C18.7042 42.2853 19.1665 42.7283 19.9471 42.8224C20.1217 42.8283 20.2958 42.7993 20.459 42.737C20.6223 42.6748 20.7714 42.5806 20.8978 42.4599C21.0241 42.3392 21.1251 42.1945 21.1948 42.0343C21.2645 41.8741 21.3014 41.7016 21.3036 41.5269H21.3174Z" fill="black"/>
</svg>
