<svg width="20" height="17" viewBox="0 0 20 17" fill="none" xmlns="http://www.w3.org/2000/svg">
<path fill-rule="evenodd" clip-rule="evenodd" d="M9.71117 4.39667L9.7545 5.11154L9.03192 5.024C6.40184 4.68845 4.10412 3.55048 2.15322 1.63928L1.19944 0.690982L0.953775 1.39127C0.433533 2.95233 0.765908 4.60092 1.84974 5.7097C2.42778 6.32245 2.29772 6.40998 1.3006 6.04526C0.953775 5.92854 0.6503 5.841 0.621397 5.88477C0.52024 5.9869 0.867067 7.31453 1.14163 7.83974C1.51737 8.56917 2.28327 9.28408 3.12144 9.70717L3.82954 10.0427L2.99137 10.0573C2.18212 10.0573 2.15322 10.0719 2.23992 10.3783C2.52894 11.3266 3.67058 12.3332 4.94227 12.7709L5.83824 13.0773L5.05788 13.5442C3.9018 14.2152 2.54339 14.5946 1.18499 14.6237C0.534691 14.6383 0 14.6967 0 14.7405C0 14.8863 1.76303 15.7033 2.78907 16.0243C5.86715 16.9727 9.52325 16.5642 12.269 14.9448C14.2199 13.7922 16.1707 11.5017 17.0812 9.28408C17.5725 8.10234 18.0639 5.94313 18.0639 4.90729C18.0639 4.23618 18.1072 4.14864 18.9165 3.34623C19.3934 2.87937 19.8413 2.36875 19.9281 2.22286C20.0726 1.94566 20.0582 1.94566 19.3211 2.19368C18.0927 2.63136 17.9193 2.573 18.5263 1.91648C18.9743 1.44962 19.509 0.603446 19.509 0.355428C19.509 0.31166 19.2922 0.384607 19.0466 0.515911C18.7864 0.661803 18.2084 0.880642 17.7748 1.01195L16.9945 1.25997L16.2864 0.778518C15.8962 0.515911 15.3471 0.224124 15.0581 0.136588C14.3211 -0.0676614 13.1938 -0.0384828 12.5291 0.194946C10.7228 0.851467 9.58108 2.54383 9.71117 4.39667Z" fill="black"/>
</svg>
