<svg width="19" height="14" viewBox="0 0 19 14" fill="none" xmlns="http://www.w3.org/2000/svg">
<path fill-rule="evenodd" clip-rule="evenodd" d="M16.9231 0.407705C17.7406 0.632042 18.3845 1.29305 18.603 2.13247C19 3.65382 19 6.82812 19 6.82812C19 6.82812 19 10.0023 18.603 11.5238C18.3845 12.3632 17.7406 13.0242 16.9231 13.2486C15.4415 13.6563 9.5 13.6562 9.5 13.6562C9.5 13.6562 3.5585 13.6563 2.07683 13.2486C1.25929 13.0242 0.615449 12.3632 0.396949 11.5238C0 10.0023 0 6.82812 0 6.82812C0 6.82812 0 3.65382 0.396949 2.13247C0.615449 1.29305 1.25929 0.632042 2.07683 0.407705C3.5585 0 9.5 0 9.5 0C9.5 0 15.4415 0 16.9231 0.407705ZM7.71877 4.15619V10.0937L12.4687 7.12505L7.71877 4.15619Z" fill="black"/>
</svg>
