<svg width="25" height="42" viewBox="0 0 25 42" fill="none" xmlns="http://www.w3.org/2000/svg">
<path d="M24.9627 20.8826C24.9627 26.0378 24.8718 31.1954 24.9981 36.3455C25.0764 39.5457 22.7854 41.6497 19.7292 41.5739C14.8671 41.4476 9.99991 41.5411 5.13523 41.5385C1.82897 41.5385 0.0356605 39.7301 0.0356605 36.3935C0.0356605 25.9898 0.0962757 15.5835 0.000295686 5.17978C-0.0300138 1.97202 2.27351 -0.0713419 5.22363 0.00190609C10.0858 0.120618 14.953 0.029691 19.8177 0.0347426C23.182 0.0347426 24.9627 1.84068 24.9627 5.22777C24.9661 10.4461 24.9661 15.6643 24.9627 20.8826ZM22.4672 32.332V7.26356H2.51346V32.332H22.4672ZM2.46042 34.8578C2.46042 35.5019 2.46042 36.0652 2.46042 36.6259C2.49831 38.3055 3.28382 39.086 4.97358 39.0986C6.60776 39.0986 8.23943 39.0986 9.87109 39.0986C13.2632 39.0986 16.6528 39.0986 20.045 39.0986C21.4392 39.0986 22.3308 38.4798 22.4596 37.3558C22.5112 36.5283 22.5171 35.6986 22.4773 34.8705H13.7204V36.7926H11.3184L11.2274 34.8604L2.46042 34.8578ZM2.54377 4.70998H22.4697C22.4697 3.30817 21.6741 2.51002 20.2243 2.48476C18.3729 2.45193 16.519 2.48476 14.6676 2.48476C11.4371 2.48476 8.20406 2.48476 4.97105 2.48476C3.3596 2.48224 2.5564 3.22735 2.54377 4.70998Z" fill="black"/>
<path d="M4.05908 19.7436L12.5079 12.5577L20.9465 19.7411L19.431 21.5622L18.2389 20.7034V26.6567H6.83745V20.6984L5.59729 21.5369L4.05908 19.7436ZM15.7535 24.2345C15.7535 22.4007 15.7661 20.6201 15.7358 18.8419C15.6965 18.6025 15.5707 18.3859 15.3822 18.2332C14.5866 17.5234 13.791 16.8137 12.9398 16.1747C12.7989 16.1001 12.642 16.0612 12.4826 16.0612C12.3232 16.0612 12.1663 16.1001 12.0254 16.1747C11.1768 16.8112 10.3837 17.5285 9.58804 18.2332C9.41802 18.3651 9.30213 18.5547 9.26221 18.7661C9.23948 20.5746 9.24958 22.3831 9.24958 24.2193H11.3081V21.7794H13.7682V24.2345H15.7535Z" fill="black"/>
</svg>
