<svg width="32" height="54" viewBox="0 0 32 54" fill="none" xmlns="http://www.w3.org/2000/svg">
<path d="M31.9522 26.7297C31.9522 33.3283 31.8359 39.9301 31.9975 46.5223C32.0977 50.6185 29.1654 53.3116 25.2534 53.2146C19.0299 53.0529 12.7999 53.1726 6.5731 53.1693C2.34108 53.1693 0.0456454 50.8545 0.0456454 46.5837C0.0456454 33.2669 0.123233 19.9469 0.000378478 6.63012C-0.0384177 2.52419 2.91009 -0.0913176 6.68624 0.00243979C12.9098 0.154391 19.1398 0.0380045 25.3666 0.0444705C29.673 0.0444705 31.9522 2.35607 31.9522 6.69154C31.9566 13.3709 31.9566 20.0503 31.9522 26.7297ZM28.758 41.385V9.29735H3.21723V41.385H28.758ZM3.14934 44.618C3.14934 45.4424 3.14934 46.1634 3.14934 46.8811C3.19783 49.0311 4.20329 50.0301 6.36618 50.0462C8.45794 50.0462 10.5465 50.0462 12.635 50.0462C16.9769 50.0462 21.3156 50.0462 25.6576 50.0462C27.4422 50.0462 28.5834 49.2542 28.7483 47.8155C28.8144 46.7563 28.8219 45.6942 28.7709 44.6342H17.5621V47.0945H14.4875L14.3711 44.6212L3.14934 44.618ZM3.25602 6.02878H28.7613C28.7613 4.23446 27.7429 3.21283 25.8871 3.1805C23.5173 3.13847 21.1443 3.1805 18.7745 3.1805C14.6395 3.1805 10.5012 3.1805 6.36294 3.1805C4.30028 3.17726 3.27219 4.131 3.25602 6.02878Z" fill="black"/>
<path d="M5.19568 25.2718L16.0101 16.0739L26.8116 25.2685L24.8718 27.5995L23.3458 26.5003V34.1205H8.75199V26.4938L7.16458 27.5672L5.19568 25.2718ZM20.1645 31.0201C20.1645 28.6729 20.1807 26.3936 20.1419 24.1176C20.0916 23.8112 19.9305 23.5339 19.6893 23.3384C18.6709 22.4299 17.6525 21.5215 16.563 20.7035C16.3827 20.6081 16.1818 20.5582 15.9778 20.5582C15.7738 20.5582 15.5729 20.6081 15.3926 20.7035C14.3063 21.5182 13.2911 22.4364 12.2727 23.3384C12.0551 23.5073 11.9068 23.7499 11.8557 24.0206C11.8266 26.3354 11.8395 28.6503 11.8395 31.0007H14.4744V27.8776H17.6234V31.0201H20.1645Z" fill="black"/>
</svg>
