<svg width="45" height="24" viewBox="0 0 45 24" fill="none" xmlns="http://www.w3.org/2000/svg">
<path d="M22.6465 17.7947C20.5715 19.1617 18.6413 20.5451 16.6072 21.759C11.1393 25.0261 4.30441 22.2429 1.59779 17.2971C-0.589383 13.3165 -0.562043 9.27845 1.87118 5.43177C4.22239 1.69991 7.73825 -0.156451 12.17 0.0103209C15.0297 0.119679 17.3919 1.61515 19.6474 3.21999C20.6125 3.90621 21.5174 4.67719 22.518 5.46184C23.4968 4.70726 24.4482 3.82146 25.5254 3.17351C27.2341 2.15648 28.9456 0.986342 30.8211 0.42588C36.8877 -1.37853 43.3754 2.79896 44.7451 9.17455C46.2816 16.3184 40.6688 23.2189 33.3445 23.1615C30.5668 23.1396 28.243 21.8629 26.0394 20.3483C24.8446 19.5253 23.7155 18.604 22.6465 17.7947ZM18.2558 13.5106C16.7767 14.4921 15.3469 15.5173 13.8459 16.4223C11.7982 17.658 9.85708 17.1987 8.09094 15.7907C7.268 15.0989 6.66431 14.1824 6.3536 13.1531C6.04288 12.1239 6.03858 11.0264 6.34121 9.99474C7.47853 6.35037 11.4318 4.91778 14.6634 7.18697C16.8998 8.75626 18.8819 10.6864 20.9515 12.4662C23.371 14.5358 25.6539 16.7886 28.2184 18.6559C32.3193 21.6359 36.2808 20.9415 39.485 18.1091C43.9468 14.1832 42.9927 6.51715 37.7544 3.73671C34.7908 2.16468 31.8955 2.17015 29.0659 3.94722C27.4556 4.95879 25.93 6.10432 24.4181 7.15416L26.7885 9.6612C28.0816 8.75352 29.2737 7.77476 30.5969 7.03933C31.5128 6.53081 32.6064 6.10432 33.6289 6.07698C35.8844 6.0223 37.8966 7.64354 38.6101 9.76236C38.9788 10.8453 39.0039 12.0157 38.6819 13.1134C38.3598 14.2111 37.7065 15.1825 36.8112 15.8946C34.9767 17.3655 32.8415 17.6088 30.7719 16.168C28.5977 14.6117 26.5087 12.9398 24.5138 11.1594C22.231 9.18822 20.1395 6.98738 17.7801 5.11736C15.2402 3.09969 12.4051 1.89675 8.97948 2.97393C6.99417 3.60988 5.28868 4.91062 4.1503 6.65704C3.01192 8.40345 2.51019 10.4888 2.72964 12.5619C3.1206 16.6437 6.66108 20.1596 10.7675 20.4904C14.9313 20.8157 17.6243 18.0955 20.6562 15.8427L18.2558 13.5106ZM28.4617 11.523C29.9189 12.4963 31.1109 13.1907 32.1853 14.0328C33.853 15.3451 36.2206 13.7594 36.3355 11.7253C36.4312 9.96194 34.542 8.07004 33.1313 8.71798C31.5948 9.42608 30.2032 10.4595 28.4617 11.523ZM16.3912 11.6297C15.7296 11.102 15.2785 10.6974 14.7837 10.3529C14.0893 9.86898 13.3675 9.42335 12.6484 8.98592C11.6396 8.36257 10.7019 8.59222 9.82701 9.27571C9.2535 9.73588 8.87153 10.3928 8.75532 11.1189C8.63911 11.8449 8.79696 12.5882 9.19819 13.2044C10.0485 14.5194 11.4756 14.8749 12.889 14.0246C14.0537 13.311 15.1254 12.4963 16.3912 11.6297V11.6297Z" fill="black"/>
</svg>
