<svg width="57" height="30" viewBox="0 0 57 30" fill="none" xmlns="http://www.w3.org/2000/svg">
<path d="M28.6856 22.54C26.0572 24.2715 23.6123 26.0238 21.0358 27.5614C14.1098 31.6997 5.45225 28.1743 2.02386 21.9097C-0.746552 16.8676 -0.711921 11.7527 2.37016 6.88024C5.34836 2.15322 9.80179 -0.198171 15.4153 0.0130731C19.0377 0.151594 22.0297 2.04586 24.8867 4.07865C26.1091 4.94787 27.2554 5.92444 28.5229 6.91833C29.7626 5.96254 30.9677 4.84052 32.3322 4.01978C34.4966 2.73154 36.6644 1.24937 39.04 0.539448C46.7245 -1.74614 54.9422 3.54535 56.6772 11.6211C58.6234 20.67 51.5138 29.4106 42.2364 29.3379C38.718 29.3102 35.7744 27.693 32.9832 25.7745C31.4699 24.7321 30.0397 23.565 28.6856 22.54ZM23.124 17.1134C21.2505 18.3567 19.4394 19.6553 17.5382 20.8016C14.9444 22.3669 12.4856 21.7851 10.2485 20.0016C9.20613 19.1252 8.44147 17.9643 8.04789 16.6606C7.65431 15.3569 7.64886 13.9668 8.0322 12.66C9.47281 8.0438 14.4803 6.22919 18.5736 9.10349C21.4064 11.0913 23.9171 13.5361 26.5386 15.7906C29.6033 18.4121 32.4949 21.2656 35.7432 23.6308C40.9378 27.4055 45.9557 26.5259 50.0143 22.9382C55.666 17.9654 54.4574 8.25505 47.8222 4.73317C44.0683 2.74193 40.401 2.74885 36.8168 4.99981C34.7771 6.28113 32.8447 7.73214 30.9297 9.06194L33.9321 12.2375C35.5701 11.0878 37.08 9.84804 38.7561 8.91648C39.9162 8.27236 41.3014 7.73214 42.5965 7.69751C45.4535 7.62825 48.0023 9.68182 48.9062 12.3657C49.3732 13.7374 49.4049 15.2199 48.997 16.6103C48.5891 18.0008 47.7615 19.2312 46.6275 20.1332C44.3038 21.9963 41.5992 22.3045 38.9777 20.4795C36.2238 18.5081 33.5777 16.3904 31.0509 14.1353C28.1592 11.6384 25.51 8.85069 22.5215 6.48198C19.3043 3.92628 15.7132 2.40255 11.374 3.76698C8.85928 4.57252 6.699 6.22012 5.25705 8.43224C3.8151 10.6444 3.17958 13.2859 3.45754 15.9118C3.95276 21.0821 8.43737 25.5355 13.6388 25.9545C18.913 26.3666 22.3241 22.9209 26.1645 20.0674L23.124 17.1134ZM36.0515 14.5958C37.8972 15.8287 39.4071 16.7083 40.7681 17.7749C42.8805 19.4371 45.8795 17.4286 46.0249 14.8521C46.1461 12.6185 43.7532 10.222 41.9663 11.0428C40.0201 11.9397 38.2574 13.2487 36.0515 14.5958ZM20.7622 14.7309C19.9242 14.0625 19.3528 13.55 18.726 13.1137C17.8464 12.5007 16.9321 11.9362 16.0214 11.3822C14.7435 10.5926 13.5557 10.8835 12.4475 11.7492C11.7211 12.3321 11.2373 13.1642 11.0901 14.0839C10.9429 15.0035 11.1428 15.9451 11.651 16.7256C12.728 18.3913 14.5357 18.8415 16.3261 17.7645C17.8014 16.8606 19.1589 15.8287 20.7622 14.7309V14.7309Z" fill="black"/>
</svg>
