<svg width="50" height="50" viewBox="0 0 50 50" fill="none" xmlns="http://www.w3.org/2000/svg">
<path d="M9.73455 49.9398V40.2539H0V26.7198C0 23.6291 0.215982 23.0329 2.20244 20.7087C0.641869 19.0508 -0.246406 17.1161 0.0943027 14.7707C0.26702 13.5464 0.780115 12.3952 1.57515 11.4482C2.37018 10.5013 3.41519 9.79662 4.59112 9.41458C5.76706 9.03253 7.02665 8.98843 8.22643 9.2873C9.42621 9.58616 10.5179 10.216 11.3773 11.105C14.1151 14.0132 13.8109 17.5268 10.3977 21.3415C12.7918 23.9333 11.7423 27.2005 12.086 30.3977C12.9774 30.3977 13.8687 30.3977 14.76 30.3977C17.8781 30.4463 19.6029 32.156 19.6273 35.2649C19.6455 39.8463 19.6273 44.4276 19.6273 49.0059C19.6273 49.3101 19.5908 49.596 19.5695 49.9489L9.73455 49.9398ZM16.6978 47.0133C16.6978 43.153 16.6978 39.4082 16.6978 35.6665C16.6978 33.6952 16.2962 33.3089 14.2642 33.2998C12.5667 33.2998 10.8723 33.2998 9.05618 33.2998V32.083C9.05618 30.0417 9.05618 27.9975 9.05618 25.9563C9.05618 23.7782 7.83936 22.3271 5.99588 22.3393C4.35013 22.3393 2.82911 23.6626 2.89299 25.9137C2.99338 29.3542 2.91732 32.7978 2.9234 36.2566C2.9234 36.5821 2.96599 36.9107 2.99641 37.367H12.731V47.0316L16.6978 47.0133ZM6.65904 19.3794C7.38273 19.3692 8.08731 19.1457 8.68455 18.7369C9.2818 18.328 9.74516 17.7521 10.0166 17.0812C10.288 16.4102 10.3554 15.6741 10.2104 14.9651C10.0654 14.256 9.71444 13.6054 9.20141 13.0949C8.68838 12.5844 8.03611 12.2366 7.32633 12.0951C6.61654 11.9535 5.88079 12.0246 5.21119 12.2993C4.5416 12.574 3.96793 13.0402 3.56206 13.6394C3.15618 14.2387 2.93615 14.9444 2.92949 15.6681C2.92412 16.1593 3.01736 16.6465 3.20369 17.101C3.39002 17.5555 3.66565 17.968 4.01426 18.3141C4.36287 18.6601 4.77737 18.9327 5.23323 19.1157C5.68909 19.2987 6.17703 19.3884 6.66816 19.3794H6.65904Z" fill="black"/>
<path d="M30.387 49.9215V45.7995C30.387 42.3133 30.3687 38.8302 30.387 35.3471C30.4083 32.0738 32.1118 30.4037 35.3789 30.3916H37.9069C38.2658 27.2309 37.1981 23.9151 39.6165 21.3141C36.2125 17.831 35.8505 14.0923 38.5731 11.1385C40.9337 8.57705 44.9401 8.40061 47.6992 10.7308C50.6287 13.1979 50.6957 16.891 47.8544 20.6357C48.3441 21.3232 48.9678 21.9651 49.3024 22.7347C49.6977 23.596 49.9219 24.5258 49.9625 25.4726C50.0264 30.2455 49.9899 35.0155 49.9869 39.7884C49.9717 39.925 49.9463 40.0603 49.9108 40.193H40.2919V49.9276L30.387 49.9215ZM47.0482 37.2909C47.0482 33.1324 47.1152 29.1291 47.0209 25.1227C46.9752 23.1637 44.9918 21.9347 43.1027 22.4944C41.7733 22.8868 40.9733 24.0002 40.9398 25.5973C40.9124 28.1222 40.9398 30.6501 40.9398 33.2967C39.0537 33.2967 37.2893 33.2967 35.5098 33.2967C33.7302 33.2967 33.3104 33.7348 33.3043 35.5387C33.3043 38.4499 33.3043 41.3642 33.3043 44.2755V46.9738H37.3015V37.2909H47.0574H47.0482ZM43.4404 19.3733C44.3972 19.3377 45.3024 18.93 45.9632 18.237C46.624 17.544 46.9882 16.6205 46.9783 15.663C46.9684 14.7055 46.5852 13.7897 45.9102 13.1105C45.2352 12.4314 44.3217 12.0425 43.3643 12.0267C42.8735 12.0186 42.386 12.109 41.9307 12.2924C41.4754 12.4758 41.0614 12.7485 40.7132 13.0946C40.3651 13.4406 40.0897 13.8529 39.9035 14.3071C39.7173 14.7613 39.624 15.2482 39.6291 15.7391C39.6342 16.2299 39.7376 16.7148 39.9331 17.165C40.1287 17.6153 40.4125 18.0218 40.7678 18.3605C41.123 18.6993 41.5425 18.9634 42.0016 19.1374C42.4606 19.3113 42.9498 19.3915 43.4404 19.3733V19.3733Z" fill="black"/>
<path d="M24.9995 22.0046C23.95 20.2037 22.9917 18.6584 22.1521 17.0613C21.7445 16.2825 21.2699 15.9631 20.3847 16.0088C18.7055 16.1 17.1845 15.6285 16.3114 14.0801C15.9183 13.3554 15.6986 12.5495 15.6695 11.7256C15.5874 9.30713 15.6178 6.88262 15.6452 4.46115C15.6787 1.65943 17.3244 0.0228153 20.1048 0.0106472C23.3619 -0.00354905 26.6179 -0.00354905 29.8729 0.0106472C32.7233 0.0288994 34.3416 1.68073 34.3538 4.55242C34.3659 6.86235 34.3659 9.17025 34.3538 11.4761C34.3355 14.3569 32.7354 16.0392 29.8576 15.9905C28.7351 15.9753 28.1663 16.3677 27.6826 17.3229C26.8977 18.8592 25.9729 20.3315 24.9995 22.0046ZM24.8991 15.9205L25.2459 16.2247C25.7144 13.1827 27.6552 12.842 30.0189 13.0854C30.9528 13.1797 31.4456 12.5591 31.4365 11.5643C31.4182 9.21891 31.4365 6.8735 31.4365 4.52808C31.4365 3.31126 31.0897 2.94926 29.8911 2.94013C26.6361 2.92188 23.3842 2.94013 20.1292 2.94013C19.0979 2.94013 18.5747 3.38731 18.5777 4.43378C18.5777 6.8157 18.5777 9.19762 18.5777 11.5826C18.5777 12.5682 19.0705 13.0428 20.0136 13.1036C20.428 13.1507 20.8464 13.1507 21.2608 13.1036C22.7149 12.8602 23.7218 13.3287 24.2329 14.7767C24.4162 15.1812 24.6393 15.5664 24.8991 15.9266V15.9205Z" fill="black"/>
</svg>
