<svg width="40" height="40" viewBox="0 0 40 40" fill="none" xmlns="http://www.w3.org/2000/svg">
<path d="M7.78764 39.9518V32.2031H0V21.3759C0 18.9033 0.172786 18.4263 1.76195 16.567C0.513495 15.2407 -0.197125 13.6929 0.0754421 11.8166C0.213616 10.8371 0.624092 9.91613 1.26012 9.15857C1.89614 8.40101 2.73215 7.83731 3.6729 7.53167C4.61365 7.22604 5.62132 7.19076 6.58114 7.42985C7.54097 7.66894 8.41436 8.1728 9.10181 8.88402C11.2921 11.2106 11.0487 14.0214 8.31817 17.0732C10.2334 19.1467 9.39383 21.7604 9.66883 24.3181C10.3819 24.3181 11.095 24.3181 11.808 24.3181C14.3025 24.3571 15.6824 25.7248 15.7018 28.212C15.7164 31.877 15.7018 35.5421 15.7018 39.2047C15.7018 39.4481 15.6726 39.6768 15.6556 39.9591L7.78764 39.9518ZM13.3582 37.6107C13.3582 34.5224 13.3582 31.5266 13.3582 28.5332C13.3582 26.9562 13.037 26.6471 11.4113 26.6398C10.0534 26.6398 8.69782 26.6398 7.24494 26.6398V25.6664C7.24494 24.0334 7.24494 22.398 7.24494 20.765C7.24494 19.0225 6.27149 17.8617 4.7967 17.8714C3.48011 17.8714 2.26328 18.9301 2.31439 20.731C2.3947 23.4834 2.33385 26.2383 2.33872 29.0053C2.33872 29.2657 2.37279 29.5286 2.39713 29.8936H10.1848V37.6253L13.3582 37.6107ZM5.32723 15.5035C5.90618 15.4953 6.46985 15.3165 6.94764 14.9895C7.42544 14.6625 7.79613 14.2017 8.01327 13.665C8.23041 13.1282 8.28434 12.5393 8.16834 11.9721C8.05233 11.4048 7.77155 10.8844 7.36113 10.4759C6.9507 10.0675 6.42889 9.78929 5.86106 9.67607C5.29323 9.56285 4.70463 9.61968 4.16895 9.83945C3.63328 10.0592 3.17434 10.4322 2.84965 10.9116C2.52495 11.391 2.34892 11.9555 2.34359 12.5345C2.3393 12.9274 2.41389 13.3172 2.56295 13.6808C2.71202 14.0444 2.93252 14.3744 3.21141 14.6513C3.4903 14.9281 3.8219 15.1462 4.18659 15.2926C4.55127 15.439 4.94162 15.5107 5.33453 15.5035H5.32723Z" fill="black"/>
<path d="M24.3096 39.9372V36.6396C24.3096 33.8507 24.295 31.0642 24.3096 28.2777C24.3266 25.6591 25.6895 24.323 28.3032 24.3133H30.3255C30.6127 21.7847 29.7585 19.1321 31.6932 17.0513C28.97 14.2648 28.6804 11.2738 30.8585 8.91079C32.747 6.86167 35.9521 6.72052 38.1594 8.58468C40.503 10.5584 40.5565 13.5128 38.2835 16.5086C38.6753 17.0586 39.1742 17.5721 39.4419 18.1878C39.7582 18.8768 39.9375 19.6207 39.97 20.3781C40.0211 24.1965 39.9919 28.0124 39.9895 31.8308C39.9774 31.94 39.957 32.0482 39.9287 32.1544H32.2335V39.9421L24.3096 39.9372ZM37.6386 29.8328C37.6386 26.506 37.6922 23.3033 37.6167 20.0982C37.5802 18.531 35.9935 17.5478 34.4822 17.9956C33.4187 18.3095 32.7786 19.2002 32.7519 20.4779C32.73 22.4978 32.7519 24.5201 32.7519 26.6374C31.243 26.6374 29.8315 26.6374 28.4078 26.6374C26.9841 26.6374 26.6483 26.9878 26.6434 28.431C26.6434 30.76 26.6434 33.0914 26.6434 35.4204V37.579H29.8412V29.8328H37.6459H37.6386ZM34.7523 15.4986C35.5178 15.4702 36.242 15.144 36.7706 14.5896C37.2992 14.0352 37.5906 13.2964 37.5827 12.5304C37.5747 11.7644 37.2681 11.0318 36.7281 10.4885C36.1882 9.94514 35.4574 9.63405 34.6915 9.62141C34.2988 9.61494 33.9089 9.68719 33.5446 9.83392C33.1803 9.98064 32.8492 10.1989 32.5706 10.4757C32.2921 10.7525 32.0718 11.0824 31.9229 11.4457C31.7739 11.8091 31.6993 12.1986 31.7033 12.5913C31.7074 12.984 31.7901 13.3718 31.9465 13.732C32.103 14.0922 32.33 14.4174 32.6142 14.6884C32.8984 14.9595 33.234 15.1708 33.6013 15.3099C33.9685 15.4491 34.3599 15.5132 34.7523 15.4986V15.4986Z" fill="black"/>
<path d="M19.9996 17.6037C19.16 16.163 18.3934 14.9267 17.7217 13.649C17.3956 13.026 17.016 12.7705 16.3078 12.807C14.9644 12.88 13.7476 12.5028 13.0492 11.2641C12.7347 10.6843 12.5589 10.0396 12.5357 9.38045C12.4699 7.44571 12.4943 5.5061 12.5162 3.56892C12.543 1.32754 13.8596 0.0182523 16.0839 0.00851773C18.6895 -0.00283924 21.2943 -0.00283924 23.8983 0.00851773C26.1786 0.0231196 27.4733 1.34458 27.4831 3.64194C27.4928 5.48988 27.4928 7.3362 27.4831 9.1809C27.4684 11.4856 26.1884 12.8314 23.8861 12.7924C22.9881 12.7802 22.533 13.0942 22.1461 13.8583C21.5182 15.0873 20.7784 16.2652 19.9996 17.6037ZM19.9193 12.7364L20.1967 12.9798C20.5715 10.5462 22.1242 10.2736 24.0151 10.4683C24.7622 10.5437 25.1565 10.0473 25.1492 9.25147C25.1346 7.37513 25.1492 5.4988 25.1492 3.62246C25.1492 2.64901 24.8718 2.3594 23.9129 2.3521C21.3089 2.3375 18.7074 2.3521 16.1034 2.3521C15.2784 2.3521 14.8598 2.70985 14.8622 3.54702C14.8622 5.45256 14.8622 7.3581 14.8622 9.26607C14.8622 10.0546 15.2565 10.4342 16.0109 10.4829C16.3424 10.5206 16.6772 10.5206 17.0087 10.4829C18.172 10.2882 18.9775 10.663 19.3863 11.8214C19.5329 12.145 19.7115 12.4532 19.9193 12.7413V12.7364Z" fill="black"/>
</svg>
