<svg width="83" height="26" viewBox="0 0 83 26" fill="none" xmlns="http://www.w3.org/2000/svg">
<path d="M3.19985 22.1284H14.6279V24.7568H0V0.386597H3.22841L3.19985 22.1284Z" fill="black"/>
<path d="M36.0839 13.3575C36.1339 15.5047 35.7248 17.6379 34.884 19.6143C34.1726 21.2952 32.967 22.7201 31.427 23.6998C30.2875 24.4412 29.0006 24.9267 27.6553 25.1225C26.31 25.3184 24.9381 25.2202 23.6345 24.8345C22.3308 24.4488 21.1263 23.7849 20.104 22.8886C19.0818 21.9923 18.2662 20.885 17.7134 19.6429C16.857 17.74 16.4279 15.6726 16.4563 13.586V11.8147C16.4101 9.68338 16.8293 7.56764 17.6848 5.61501C18.3973 3.91866 19.6141 2.4824 21.1704 1.50092C22.6948 0.526118 24.4755 0.0287031 26.2844 0.0724157C28.1008 0.040026 29.8875 0.536327 31.427 1.50092C32.9655 2.49502 34.1698 3.92831 34.884 5.61501C35.7217 7.58234 36.1307 9.70553 36.0839 11.8433V13.3575ZM32.8841 11.7861C33.0404 9.43691 32.4287 7.10057 31.1413 5.1293C30.584 4.37443 29.8494 3.76845 29.0023 3.36484C28.1552 2.96123 27.2218 2.77243 26.2844 2.81514C25.3566 2.7819 24.4346 2.97526 23.5983 3.37848C22.762 3.78171 22.0365 4.38264 21.4846 5.1293C20.2095 7.03366 19.5787 9.29674 19.6847 11.5861V13.3575C19.5529 15.6953 20.1628 18.0151 21.4275 19.9857C21.978 20.7605 22.7131 21.3857 23.5661 21.8048C24.4192 22.2238 25.3633 22.4234 26.313 22.3856C27.2384 22.4221 28.1587 22.2332 28.9949 21.835C29.831 21.4368 30.5578 20.8414 31.1127 20.1C32.3782 18.1817 32.9987 15.9098 32.8841 13.6146V11.7861Z" fill="black"/>
<path d="M58.9114 21.4998C58.0546 22.7151 56.8492 23.6416 55.4544 24.1569C53.8037 24.7821 52.0479 25.0829 50.2832 25.0425C48.4248 25.0821 46.5929 24.5969 44.9978 23.6426C43.4375 22.7052 42.1936 21.322 41.4265 19.6714C40.5098 17.8332 40.0214 15.8113 39.998 13.7574V11.6146C39.7907 8.54072 40.7042 5.49581 42.5693 3.04361C43.4638 2.02148 44.58 1.21727 45.8327 0.692413C47.0855 0.167551 48.4416 -0.0640744 49.7975 0.0151956C52.0129 -0.103988 54.1961 0.586504 55.9401 1.95796C57.5482 3.3742 58.5675 5.34143 58.7971 7.47195H55.6829C55.6253 6.77953 55.4318 6.10528 55.1133 5.48773C54.7949 4.87019 54.3578 4.32149 53.8271 3.87304C53.2963 3.42458 52.6824 3.08516 52.0204 2.8742C51.3584 2.66325 50.6613 2.5849 49.9689 2.64363C49.0319 2.58964 48.0959 2.76732 47.2438 3.16097C46.3918 3.55462 45.6498 4.15214 45.0835 4.90067C43.8558 6.8641 43.2669 9.1598 43.3978 11.4718V13.4717C43.2719 15.7937 43.9366 18.0899 45.2834 19.9856C45.8681 20.7682 46.6333 21.3977 47.5138 21.8206C48.3943 22.2435 49.3641 22.4471 50.3404 22.4141C51.4109 22.4281 52.4781 22.2935 53.5116 22.0141C54.3724 21.7809 55.153 21.3165 55.7686 20.6713V15.2716H50.0546V12.6431H58.9114V21.4998Z" fill="black"/>
<path d="M82.9959 13.3574C83.0459 15.5046 82.6368 17.6378 81.796 19.6142C81.0938 21.2836 79.9102 22.7059 78.3961 23.6997C76.8375 24.6167 75.0619 25.1002 73.2535 25.1002C71.4451 25.1002 69.6696 24.6167 68.1109 23.6997C66.588 22.713 65.3865 21.303 64.6539 19.6428C63.8146 17.7344 63.3863 15.6707 63.3969 13.586V11.8146C63.3506 9.68329 63.7699 7.56754 64.6254 5.61491C65.3313 3.93654 66.5268 2.50991 68.0557 1.52118C69.5847 0.532455 71.3762 0.0275449 73.1964 0.0723199C75.0188 0.032372 76.8142 0.518399 78.3676 1.47225C79.8978 2.46799 81.0925 3.90166 81.796 5.58634C82.6337 7.55367 83.0427 9.67686 82.9959 11.8146V13.3574ZM79.7961 11.786C79.9523 9.43682 79.3407 7.10047 78.0533 5.12921C77.4723 4.40779 76.7369 3.82575 75.9014 3.42586C75.0658 3.02597 74.1513 2.8184 73.225 2.8184C72.2986 2.8184 71.3841 3.02597 70.5486 3.42586C69.713 3.82575 68.9777 4.40779 68.3966 5.12921C67.1215 7.03357 66.4906 9.29665 66.5967 11.586V13.3574C66.4733 15.6983 67.0934 18.0183 68.3681 19.9856C68.9457 20.7169 69.6815 21.3079 70.5202 21.7142C71.3589 22.1205 72.2787 22.3316 73.2107 22.3316C74.1426 22.3316 75.0625 22.1205 75.9012 21.7142C76.7399 21.3079 77.4756 20.7169 78.0533 19.9856C79.3087 18.064 79.9191 15.7923 79.7961 13.5002V11.786Z" fill="black"/>
</svg>
