<svg width="50" height="51" viewBox="0 0 50 51" fill="none" xmlns="http://www.w3.org/2000/svg">
<path d="M45.0082 26.7067C46.4419 27.422 47.6648 27.9295 48.7806 28.6296C49.2942 28.9353 49.9026 29.6048 49.9087 30.1122C49.9148 30.6197 49.3156 31.2862 48.8081 31.6041C47.6862 32.3042 46.4542 32.8269 45.1091 33.4964C45.3587 33.6897 45.6201 33.8674 45.8917 34.0284C46.9739 34.5817 48.0866 35.0831 49.1505 35.67C50.2877 36.3028 50.2786 37.6602 49.1505 38.3113C48.9549 38.4275 48.7409 38.5131 48.5391 38.617C41.1624 42.3039 33.7795 45.9785 26.4211 49.702C25.9809 49.9558 25.4817 50.0894 24.9736 50.0894C24.4655 50.0894 23.9663 49.9558 23.5261 49.702C16.1646 45.9846 8.76952 42.3283 1.41724 38.5926C0.774367 38.2584 0.282586 37.6923 0.0415516 37.009C-0.203015 36.0919 0.680487 35.6853 1.42336 35.3276C2.51779 34.8018 3.59695 34.2393 4.9115 33.5759C3.97297 33.0837 3.19953 32.6741 2.41997 32.2705C1.94612 32.026 1.38363 31.8823 1.01372 31.5307C0.582671 31.1241 0.0690802 30.5494 0.0568519 30.0358C0.0568519 29.5925 0.597943 28.9872 1.0565 28.7121C2.24877 27.9967 3.52664 27.422 4.96958 26.6914C3.60613 26.0066 2.38635 25.4961 1.27968 24.799C0.738581 24.4566 0.0751936 23.778 0.0751936 23.2491C0.0751936 22.7202 0.741637 22.0263 1.29803 21.7206C4.07997 20.2379 6.95973 18.9356 9.72944 17.4406C11.0868 16.7008 12.3005 15.6859 13.5294 14.7321C14.098 14.2919 13.7434 11.8645 13.1228 11.4946C11.7013 10.6448 11.5423 10.0792 12.3616 8.62402C13.1442 7.23407 13.9391 5.85023 14.7461 4.47251C15.4523 3.27107 16.0821 3.09682 17.2927 3.72047C18.6133 4.39914 20.4904 3.31388 20.576 1.81896C20.6555 0.458562 21.1171 0.0183425 22.5111 0.00917124C24.1415 -0.00305708 25.7791 -0.00305708 27.4238 0.00917124C28.8943 0.00917124 29.3192 0.440216 29.3926 1.89233C29.4629 3.29247 31.3766 4.38079 32.6453 3.72658C33.914 3.07236 34.4979 3.24356 35.198 4.42665C36.0295 5.83291 36.8447 7.2463 37.6436 8.66682C38.3987 9.99665 38.2337 10.6142 36.9589 11.3968C35.8277 12.0877 36.002 14.2246 36.9589 15.102C40.4195 18.2783 44.9745 19.4369 48.8815 21.8C49.3614 22.1058 49.9087 22.7447 49.9117 23.2338C49.9148 23.7229 49.3767 24.3863 48.8968 24.6859C47.7595 25.4135 46.4939 25.9577 45.0082 26.7067ZM45.265 23.2522L36.9405 19.0884C36.3475 20.1095 35.7819 21.0877 35.2041 22.063C34.5346 23.1971 33.9232 23.3775 32.7584 22.7936C31.3491 22.0874 29.4874 23.1482 29.3956 24.7043C29.3284 26.0005 28.8576 26.4682 27.5614 26.4835C26.0023 26.4988 24.4401 26.4835 22.881 26.4835C21.0223 26.4835 20.7166 26.1931 20.5821 24.3435C20.5057 23.2674 18.4605 22.1424 17.525 22.6591C16.0943 23.4386 15.5134 23.2705 14.6575 21.8367C14.1225 20.9196 13.6028 20.0269 13.0617 19.1037L4.89316 23.1971C4.99608 23.3098 5.10972 23.4122 5.23249 23.5028C11.6248 26.7036 18.0172 29.9227 24.4279 33.0684C24.6477 33.1409 24.8797 33.1692 25.1105 33.1519C25.3413 33.1346 25.5664 33.072 25.773 32.9676C29.6616 31.063 33.5288 29.1095 37.3899 27.1591L45.265 23.2522ZM26.4975 23.4998C26.1918 21.8765 27.1089 21.2131 28.396 20.8034C28.8269 20.655 29.2277 20.4303 29.5791 20.14C30.6827 19.2474 31.771 18.4097 33.1742 19.6815L34.663 17.0799C32.9877 16.5663 33.0366 15.3313 33.2292 14.0228C33.2934 13.573 33.2996 13.1169 33.2476 12.6655C33.0856 11.302 32.8868 9.94774 34.6783 9.39746C34.1158 8.44671 33.6419 7.64881 33.1222 6.76532C32.0186 7.82307 31.0618 7.52959 30.0957 6.74086C29.6425 6.33812 29.1261 6.01277 28.5672 5.77788C27.2587 5.29792 26.1674 4.71402 26.4884 3.01122H23.5077C23.8134 4.69567 22.7924 5.356 21.4289 5.7626C21.0344 5.89357 20.6697 6.10137 20.3559 6.37401C19.2828 7.29114 18.2159 8.04318 16.8433 6.77143L15.3147 9.41887C16.8158 9.89577 16.9931 10.9474 16.7852 12.1855C16.7097 12.711 16.6954 13.2434 16.7424 13.7721C16.8891 15.8785 16.8983 15.8754 15.4126 17.2603L16.8555 19.7059C18.1242 18.5198 19.1758 19.0945 20.2183 19.9689C20.5351 20.2378 20.8893 20.4592 21.2699 20.6261C22.5631 21.1611 23.9204 21.6166 23.4955 23.4845L26.4975 23.4998ZM4.79227 30.1214C5.3242 30.4027 5.62074 30.5678 5.92339 30.7175C11.9703 33.741 18.0264 36.7492 24.058 39.8032C24.3454 39.9699 24.6727 40.0553 25.0049 40.0505C25.3371 40.0457 25.6618 39.9507 25.9442 39.7757C31.9789 36.7186 38.035 33.7196 44.0819 30.6961C44.3876 30.5341 44.7116 30.3415 45.1702 30.0847C44.3264 29.6598 43.6233 29.3663 42.9874 28.9689C42.1315 28.437 41.4069 28.4492 40.4745 28.9292C35.9531 31.2648 31.3644 33.472 26.843 35.8076C25.5743 36.4618 24.5135 36.5046 23.2203 35.8351C18.5675 33.4292 13.8657 31.118 9.15777 28.8038C8.79092 28.6234 8.25899 28.4553 7.93494 28.5898C6.91999 28.9781 5.96924 29.5222 4.79227 30.1336V30.1214ZM45.1794 36.9662C44.2622 36.5046 43.5163 36.202 42.8499 35.774C42.0581 35.2634 41.4008 35.3154 40.554 35.7495C35.8889 38.1401 31.1749 40.436 26.4914 42.8114C26.0386 43.0797 25.5227 43.223 24.9963 43.2268C24.47 43.2306 23.9521 43.0946 23.4955 42.8328C18.757 40.4054 13.9818 38.0484 9.21586 35.6761C8.88875 35.5111 8.43631 35.2481 8.1734 35.3551C7.07896 35.7954 6.03344 36.3579 4.78921 36.9632C5.3456 37.2689 5.63602 37.434 5.93867 37.5746C11.9886 40.598 18.0447 43.6031 24.0763 46.6602C24.3649 46.8251 24.6927 46.9085 25.0249 46.9015C25.3572 46.8945 25.6812 46.7973 25.9626 46.6205C31.9667 43.598 37.9789 40.5889 43.9993 37.5929C44.3448 37.437 44.6627 37.2505 45.1794 36.9662V36.9662Z" fill="black"/>
<path d="M25.0546 7.85669C26.1199 7.87131 27.157 8.20154 28.0347 8.80561C28.9123 9.40968 29.5911 10.2605 29.9852 11.2503C30.3793 12.2402 30.471 13.3248 30.2487 14.3668C30.0264 15.4087 29.5 16.3614 28.7362 17.1042C27.9725 17.8471 27.0055 18.3467 25.9577 18.54C24.91 18.7332 23.8284 18.6114 22.8499 18.19C21.8713 17.7685 21.0397 17.0663 20.4603 16.1722C19.8809 15.2781 19.5796 14.2322 19.5947 13.1668C19.639 11.7467 20.2331 10.3992 21.2517 9.40858C22.2703 8.41794 23.6337 7.86154 25.0546 7.85669V7.85669ZM24.9751 10.8343C24.3231 10.8471 23.702 11.1147 23.2449 11.5798C22.7877 12.0449 22.5309 12.6706 22.5294 13.3227C22.5501 13.9738 22.8286 14.59 23.3036 15.0357C23.7786 15.4815 24.4112 15.7203 25.0622 15.6996C25.7133 15.679 26.3295 15.4005 26.7752 14.9255C27.221 14.4505 27.4598 13.8179 27.4391 13.1668C27.433 11.9318 26.2469 10.819 24.9751 10.8343Z" fill="black"/>
</svg>
