<svg width="50" height="51" viewBox="0 0 50 51" fill="none" xmlns="http://www.w3.org/2000/svg">
<path d="M0.00202728 25.0309V5.18867C0.00202728 1.79748 1.68394 0.0182485 5.06904 0.0182485C18.3986 -0.00608285 31.7302 -0.00608285 45.0638 0.0182485C48.2938 0.0182485 50 1.80357 50 5.07614C50 18.4158 50 31.7575 50 45.1013C50 48.1427 48.4124 49.8185 45.3953 50.0345C45.1307 50.0527 44.8661 50.0527 44.6015 50.0527H5.17853C2.423 50.0527 0.786716 48.9548 0.172349 46.6737C0.0473516 46.1201 -0.00782362 45.553 0.00811143 44.9857C9.62499e-07 38.3371 -0.00202795 31.6856 0.00202728 25.0309ZM2.94004 14.7935V15.8945C2.94004 25.5824 2.94004 35.2694 2.94004 44.9553C2.94004 46.6707 3.3628 47.0843 5.10858 47.0843H44.8539C46.6331 47.0843 47.065 46.6433 47.065 44.8671V14.7874L2.94004 14.7935ZM2.94004 11.7247H47.065C47.065 9.5227 47.065 7.39674 47.065 5.27383C47.065 3.33036 46.7031 2.97756 44.7323 2.97756H5.41272C5.10858 2.97756 4.80444 2.96235 4.5003 2.97756C3.53008 3.06272 2.95221 3.56455 2.94613 4.57734C2.937 6.94053 2.94917 9.29459 2.94917 11.7247H2.94004Z" fill="black"/>
<path d="M21.146 42.5982C19.4459 42.6438 18.8619 41.5459 19.4124 40.232C20.2032 38.3463 21.0183 36.4758 21.8242 34.5993C23.865 29.8334 25.8876 25.0614 27.9801 20.3198C28.1099 20.0619 28.2901 19.8327 28.51 19.6457C28.73 19.4587 28.9852 19.3176 29.2605 19.231C29.5126 19.217 29.7642 19.2675 29.9914 19.3777C30.2186 19.4878 30.414 19.654 30.5592 19.8605C30.7788 20.4055 30.7874 21.0127 30.5836 21.5637C29.9144 23.3338 29.1145 25.0522 28.3724 26.7919C26.3986 31.4179 24.4429 36.0561 22.4447 40.673C22.0858 41.5124 21.8912 42.5982 21.146 42.5982Z" fill="black"/>
<path d="M11.2553 30.9191L16.301 34.9946C16.6048 35.2186 16.8943 35.4614 17.1678 35.7215C17.7275 36.3116 17.8795 36.9928 17.3503 37.668C16.8211 38.3432 16.0699 38.4801 15.346 37.9722C14.5735 37.4278 13.8618 36.8012 13.1227 36.2112C11.529 34.9368 9.92316 33.6746 8.3477 32.376C7.13113 31.3692 7.13113 30.5024 8.3477 29.5049C10.4767 27.7591 12.6239 26.0376 14.7681 24.307C14.8533 24.2371 14.9537 24.1793 15.0449 24.1154C16.0151 23.4403 16.812 23.4585 17.3351 24.1702C17.8582 24.8819 17.7427 25.6909 16.8454 26.4208C15.3521 27.6374 13.8405 28.854 12.338 30.0493C12.0157 30.2956 11.6963 30.5602 11.2553 30.9191Z" fill="black"/>
<path d="M38.7711 30.9252L33.5398 26.7159C33.2923 26.5414 33.0594 26.3472 32.8433 26.135C32.2533 25.4933 32.1377 24.7876 32.7369 24.0942C32.846 23.9477 32.9846 23.8255 33.1437 23.7357C33.3028 23.6459 33.4789 23.5903 33.6608 23.5725C33.8427 23.5548 34.0262 23.5753 34.1997 23.6326C34.3732 23.69 34.5328 23.783 34.6682 23.9056C37.1409 25.843 39.5983 27.8017 42.0132 29.809C42.7918 30.4569 42.7645 31.4362 41.9706 32.0901C39.577 34.0609 37.1409 35.9862 34.7047 37.9083C33.9991 38.4649 33.2722 38.3676 32.6791 37.7137C32.086 37.0598 32.2685 36.1626 33.0562 35.5147C34.8963 34.0032 36.7668 32.5311 38.7711 30.9252Z" fill="black"/>
<path d="M38.1567 8.83836C36.7972 8.83836 35.4377 8.83836 34.0781 8.83836C33.1079 8.83836 32.4631 8.41864 32.3537 7.42714C32.2563 6.56642 32.9984 5.90643 34.0842 5.89122C36.8033 5.86284 39.5213 5.86284 42.2383 5.89122C43.3423 5.89122 44.0388 6.49951 44.0388 7.38152C44.0388 8.26353 43.3514 8.83836 42.2322 8.83836C40.8727 8.8627 39.5162 8.83836 38.1567 8.83836Z" fill="black"/>
<path d="M7.22845 8.83842C7.04918 8.82459 6.87442 8.7755 6.71417 8.69397C6.55393 8.61243 6.41137 8.50005 6.29466 8.36328C6.17795 8.22651 6.0894 8.06804 6.03409 7.89697C5.97878 7.72589 5.9578 7.54557 5.97234 7.36637C5.97234 6.49348 6.54717 5.97644 7.42006 5.92169C7.61879 5.92213 7.81533 5.96323 7.99758 6.04245C8.17984 6.12167 8.34396 6.23733 8.47985 6.38234C8.61574 6.52735 8.72053 6.69863 8.78777 6.88564C8.855 7.07265 8.88327 7.27144 8.87082 7.46978C8.82824 8.26359 8.16216 8.87187 7.22845 8.83842Z" fill="black"/>
<path d="M20.6107 7.46367C20.4891 8.24532 20.0724 8.83536 19.163 8.83231C18.2536 8.82927 17.7639 8.33352 17.7122 7.4363C17.704 7.2385 17.736 7.04109 17.8065 6.85607C17.8769 6.67104 17.9842 6.50228 18.1219 6.36003C18.2596 6.21779 18.4248 6.10504 18.6074 6.02863C18.7901 5.95223 18.9863 5.91377 19.1843 5.91559C19.5732 5.94695 19.9359 6.12371 20.2003 6.41062C20.4647 6.69753 20.6112 7.07353 20.6107 7.46367V7.46367Z" fill="black"/>
<path d="M14.7651 7.36941C14.6647 8.19668 14.2572 8.7928 13.3569 8.83234C12.4567 8.87188 11.9427 8.36091 11.8362 7.48802C11.8185 7.28941 11.8423 7.0893 11.906 6.90036C11.9698 6.71143 12.0721 6.53781 12.2065 6.39053C12.3409 6.24325 12.5045 6.12551 12.6868 6.0448C12.8692 5.9641 13.0663 5.92217 13.2657 5.92169C14.1447 5.96123 14.6313 6.47828 14.7651 7.36941Z" fill="black"/>
</svg>
