<svg width="40" height="41" viewBox="0 0 40 41" fill="none" xmlns="http://www.w3.org/2000/svg">
<path d="M0.00162182 20.0247V4.15094C0.00162182 1.43799 1.34715 0.0145988 4.05523 0.0145988C14.7189 -0.00486628 25.3841 -0.00486628 36.051 0.0145988C38.635 0.0145988 40 1.44285 40 4.06091C40 14.7327 40 25.406 40 36.081C40 38.5142 38.7299 39.8548 36.3162 40.0276C36.1045 40.0422 35.8929 40.0422 35.6812 40.0422H4.14283C1.9384 40.0422 0.629373 39.1638 0.137879 37.339C0.0378813 36.8961 -0.0062589 36.4424 0.00648914 35.9886C7.7e-07 30.6697 -0.00162236 25.3484 0.00162182 20.0247ZM2.35204 11.8348V12.7156C2.35204 20.4659 2.35204 28.2155 2.35204 35.9642C2.35204 37.3365 2.69024 37.6674 4.08687 37.6674H35.8831C37.3065 37.6674 37.652 37.3146 37.652 35.8937V11.8299L2.35204 11.8348ZM2.35204 9.37975H37.652C37.652 7.61816 37.652 5.91739 37.652 4.21906C37.652 2.66429 37.3625 2.38205 35.7858 2.38205H4.33018C4.08687 2.38205 3.84355 2.36988 3.60024 2.38205C2.82407 2.45017 2.36177 2.85164 2.3569 3.66187C2.3496 5.55242 2.35933 7.43567 2.35933 9.37975H2.35204Z" fill="black"/>
<path d="M16.9168 34.0786C15.5567 34.115 15.0895 33.2367 15.5299 32.1856C16.1626 30.677 16.8146 29.1806 17.4594 27.6794C19.092 23.8667 20.7101 20.0491 22.3841 16.2558C22.4879 16.0495 22.6321 15.8661 22.808 15.7165C22.984 15.5669 23.1881 15.4541 23.4084 15.3847C23.6101 15.3736 23.8113 15.414 23.9931 15.5021C24.1749 15.5902 24.3312 15.7232 24.4474 15.8884C24.623 16.3244 24.63 16.8101 24.4669 17.251C23.9316 18.667 23.2916 20.0418 22.698 21.4335C21.1189 25.1343 19.5543 28.8449 17.9558 32.5384C17.6687 33.2099 17.5129 34.0786 16.9168 34.0786Z" fill="black"/>
<path d="M9.00423 24.7353L13.0408 27.9957C13.2838 28.1749 13.5154 28.3691 13.7343 28.5772C14.182 29.0492 14.3036 29.5943 13.8802 30.1344C13.4569 30.6746 12.8559 30.7841 12.2768 30.3777C11.6588 29.9422 11.0894 29.441 10.4982 28.9689C9.22322 27.9495 7.93852 26.9397 6.67815 25.9008C5.7049 25.0954 5.7049 24.4019 6.67815 23.6039C8.38135 22.2072 10.0991 20.8301 11.8145 19.4456C11.8826 19.3897 11.9629 19.3434 12.0359 19.2923C12.8121 18.7522 13.4496 18.7668 13.8681 19.3361C14.2866 19.9055 14.1941 20.5527 13.4763 21.1367C12.2817 22.1099 11.0724 23.0832 9.87043 24.0394C9.61252 24.2365 9.35704 24.4482 9.00423 24.7353Z" fill="black"/>
<path d="M31.0168 24.7402L26.8318 21.3727C26.6338 21.2332 26.4475 21.0777 26.2747 20.908C25.8026 20.3946 25.7102 19.8301 26.1895 19.2754C26.2768 19.1581 26.3877 19.0604 26.515 18.9886C26.6422 18.9167 26.7831 18.8723 26.9286 18.8581C27.0741 18.8438 27.221 18.8602 27.3597 18.9061C27.4985 18.952 27.6262 19.0264 27.7345 19.1245C29.7127 20.6744 31.6787 22.2414 33.6106 23.8472C34.2334 24.3655 34.2116 25.149 33.5765 25.6721C31.6616 27.2488 29.7127 28.7889 27.7637 30.3267C27.1992 30.772 26.6177 30.6941 26.1433 30.171C25.6688 29.6478 25.8148 28.9301 26.445 28.4118C27.917 27.2025 29.4134 26.0249 31.0168 24.7402Z" fill="black"/>
<path d="M30.5253 7.07067C29.4377 7.07067 28.3501 7.07067 27.2625 7.07067C26.4863 7.07067 25.9705 6.73489 25.8829 5.94169C25.8051 5.25311 26.3987 4.72512 27.2674 4.71295C29.4426 4.69025 31.617 4.69025 33.7906 4.71295C34.6739 4.71295 35.231 5.19958 35.231 5.90519C35.231 6.6108 34.6811 7.07067 33.7858 7.07067C32.6981 7.09013 31.613 7.07067 30.5253 7.07067Z" fill="black"/>
<path d="M5.78276 7.07075C5.63935 7.05968 5.49953 7.02041 5.37134 6.95518C5.24314 6.88996 5.12909 6.80005 5.03573 6.69063C4.94236 6.58122 4.87152 6.45445 4.82727 6.31758C4.78302 6.18072 4.76624 6.03647 4.77787 5.89311C4.77787 5.1948 5.23774 4.78116 5.93605 4.73737C6.09503 4.73772 6.25226 4.77059 6.39807 4.83397C6.54387 4.89735 6.67517 4.98988 6.78388 5.10589C6.89259 5.22189 6.97642 5.35892 7.03021 5.50853C7.084 5.65813 7.10661 5.81716 7.09666 5.97583C7.06259 6.61088 6.52973 7.09751 5.78276 7.07075Z" fill="black"/>
<path d="M16.4886 5.97094C16.3912 6.59626 16.0579 7.06828 15.3304 7.06585C14.6029 7.06342 14.2111 6.66682 14.1698 5.94904C14.1632 5.7908 14.1888 5.63287 14.2452 5.48485C14.3015 5.33684 14.3874 5.20182 14.4975 5.08803C14.6077 4.97423 14.7398 4.88403 14.8859 4.8229C15.032 4.76178 15.189 4.73101 15.3474 4.73247C15.6585 4.75756 15.9487 4.89896 16.1602 5.1285C16.3717 5.35803 16.489 5.65883 16.4886 5.97094V5.97094Z" fill="black"/>
<path d="M11.8121 5.89554C11.7318 6.55736 11.4057 7.03425 10.6855 7.06588C9.96532 7.09751 9.55412 6.68874 9.46896 5.99043C9.4548 5.83154 9.47382 5.67145 9.52482 5.5203C9.57581 5.36916 9.65768 5.23026 9.76521 5.11244C9.87274 4.99461 10.0036 4.90042 10.1495 4.83586C10.2953 4.77129 10.453 4.73775 10.6125 4.73737C11.3157 4.769 11.705 5.18263 11.8121 5.89554Z" fill="black"/>
</svg>
