<svg width="40" height="41" viewBox="0 0 40 41" fill="none" xmlns="http://www.w3.org/2000/svg">
<path d="M36.0065 21.3653C37.1536 21.9376 38.1318 22.3436 39.0245 22.9036C39.4354 23.1482 39.9221 23.6838 39.9269 24.0898C39.9318 24.4958 39.4525 25.0289 39.0465 25.2833C38.1489 25.8433 37.1633 26.2615 36.0872 26.7971C36.287 26.9518 36.496 27.0939 36.7133 27.2227C37.5791 27.6654 38.4693 28.0664 39.3204 28.536C40.2302 29.0423 40.2229 30.1281 39.3204 30.6491C39.1639 30.742 38.9927 30.8105 38.8313 30.8936C32.9299 33.8431 27.0236 36.7828 21.1369 39.7616C20.7847 39.9647 20.3854 40.0715 19.9789 40.0715C19.5724 40.0715 19.173 39.9647 18.8208 39.7616C12.9317 36.7877 7.01561 33.8627 1.13379 30.8741C0.619493 30.6067 0.226069 30.1538 0.0332413 29.6072C-0.162412 28.8735 0.54439 28.5482 1.13869 28.2621C2.01423 27.8414 2.87756 27.3914 3.9292 26.8607C3.17838 26.467 2.55962 26.1393 1.93598 25.8164C1.5569 25.6208 1.1069 25.5058 0.810976 25.2246C0.466137 24.8993 0.0552642 24.4395 0.0454815 24.0287C0.0454815 23.674 0.478354 23.1898 0.845204 22.9697C1.79901 22.3974 2.82131 21.9376 3.97567 21.3531C2.8849 20.8053 1.90908 20.3968 1.02375 19.8392C0.590865 19.5653 0.0601549 19.0224 0.0601549 18.5993C0.0601549 18.1762 0.59331 17.621 1.03842 17.3764C3.26398 16.1903 5.56778 15.1484 7.78355 13.9525C8.86943 13.3607 9.84037 12.5487 10.8235 11.7857C11.2784 11.4335 10.9947 9.49162 10.4983 9.1957C9.36102 8.5158 9.23384 8.06336 9.88928 6.89922C10.5154 5.78726 11.1512 4.68019 11.7969 3.57801C12.3618 2.61686 12.8657 2.47746 13.8341 2.97637C14.8907 3.51931 16.3923 2.6511 16.4608 1.45517C16.5244 0.366849 16.8937 0.014674 18.0089 0.00733699C19.3132 -0.00244566 20.6233 -0.00244566 21.9391 0.00733699C23.1154 0.00733699 23.4554 0.352173 23.5141 1.51386C23.5703 2.63398 25.1013 3.50463 26.1163 2.98126C27.1312 2.45789 27.5983 2.59485 28.1584 3.54132C28.8236 4.66633 29.4758 5.79704 30.1149 6.93346C30.719 7.99732 30.5869 8.49135 29.5671 9.11744C28.6622 9.67016 28.8016 11.3797 29.5671 12.0816C32.3356 14.6226 35.9796 15.5495 39.1052 17.44C39.4892 17.6846 39.9269 18.1957 39.9294 18.587C39.9318 18.9784 39.5014 19.5091 39.1174 19.7487C38.2076 20.3308 37.1951 20.7661 36.0065 21.3653ZM36.212 18.6017L29.5524 15.2707C29.078 16.0876 28.6255 16.8702 28.1633 17.6504C27.6277 18.5577 27.1385 18.702 26.2068 18.2349C25.0793 17.6699 23.5899 18.5186 23.5165 19.7634C23.4627 20.8004 23.0861 21.1746 22.0491 21.1868C20.8018 21.199 19.5521 21.1868 18.3048 21.1868C16.8178 21.1868 16.5733 20.9545 16.4657 19.4748C16.4045 18.614 14.7684 17.7139 14.02 18.1273C12.8754 18.7509 12.4108 18.6164 11.726 17.4694C11.298 16.7357 10.8822 16.0215 10.4493 15.283L3.91453 18.5577C3.99686 18.6478 4.08778 18.7298 4.18599 18.8023C9.29988 21.3629 14.4138 23.9382 19.5423 26.4548C19.7182 26.5127 19.9037 26.5354 20.0884 26.5215C20.273 26.5077 20.4532 26.4576 20.6184 26.374C23.7293 24.8504 26.8231 23.2876 29.9119 21.7273L36.212 18.6017ZM21.198 18.7998C20.9535 17.5012 21.6872 16.9705 22.7168 16.6427C23.0615 16.524 23.3822 16.3443 23.6633 16.112C24.5462 15.3979 25.4168 14.7278 26.5394 15.7452L27.7304 13.6639C26.3902 13.2531 26.4293 12.265 26.5834 11.2183C26.6347 10.8584 26.6397 10.4935 26.5981 10.1324C26.4684 9.04162 26.3095 7.95819 27.7426 7.51797C27.2926 6.75737 26.9135 6.11905 26.4978 5.41225C25.6149 6.25845 24.8494 6.02367 24.0766 5.39269C23.714 5.07049 23.3009 4.81022 22.8537 4.62231C21.807 4.23834 20.9339 3.77121 21.1907 2.40898H18.8062C19.0507 3.75654 18.2339 4.2848 17.1431 4.61008C16.8275 4.71486 16.5357 4.8811 16.2847 5.09921C15.4263 5.83291 14.5727 6.43454 13.4746 5.41715L12.2518 7.53509C13.4526 7.91662 13.5945 8.75792 13.4282 9.74842C13.3678 10.1688 13.3563 10.5947 13.3939 11.0177C13.5113 12.7028 13.5186 12.7003 12.3301 13.8082L13.4844 15.7648C14.4993 14.8158 15.3407 15.2756 16.1746 15.9751C16.428 16.1903 16.7115 16.3674 17.0159 16.5009C18.0505 16.9289 19.1363 17.2933 18.7964 18.7876L21.198 18.7998ZM3.83381 24.0971C4.25936 24.3221 4.49659 24.4542 4.73871 24.574C9.57624 26.9928 14.4211 29.3993 19.2464 31.8426C19.4763 31.9759 19.7382 32.0443 20.0039 32.0404C20.2697 32.0365 20.5294 31.9605 20.7554 31.8205C25.5831 29.3749 30.428 26.9757 35.2655 24.5569C35.5101 24.4273 35.7693 24.2732 36.1362 24.0678C35.4612 23.7278 34.8987 23.4931 34.39 23.1751C33.7052 22.7496 33.1255 22.7594 32.3796 23.1433C28.7625 25.0118 25.0915 26.7776 21.4744 28.6461C20.4594 29.1694 19.6108 29.2037 18.5763 28.6681C14.854 26.7433 11.0925 24.8944 7.32622 23.0431C7.03274 22.8988 6.60719 22.7642 6.34795 22.8719C5.53599 23.1825 4.77539 23.6178 3.83381 24.1069V24.0971ZM36.1435 29.573C35.4098 29.2037 34.813 28.9616 34.2799 28.6192C33.6465 28.2107 33.1206 28.2523 32.4432 28.5996C28.7111 30.5121 24.9399 32.3488 21.1931 34.2491C20.8309 34.4637 20.4181 34.5784 19.9971 34.5814C19.576 34.5844 19.1617 34.4757 18.7964 34.2662C15.0056 32.3244 11.1855 30.4387 7.37268 28.5409C7.111 28.4088 6.74905 28.1985 6.53872 28.2841C5.66317 28.6363 4.82675 29.0863 3.83137 29.5705C4.27648 29.8151 4.50882 29.9472 4.75094 30.0597C9.59091 32.4784 14.4358 34.8825 19.2611 37.3282C19.4919 37.4601 19.7542 37.5268 20.02 37.5212C20.2857 37.5156 20.545 37.4379 20.77 37.2964C25.5733 34.8784 30.3831 32.4711 35.1995 30.0743C35.4758 29.9496 35.7302 29.8004 36.1435 29.573V29.573Z" fill="black"/>
<path d="M20.0437 6.28534C20.896 6.29703 21.7256 6.56122 22.4278 7.04447C23.1299 7.52773 23.6729 8.20836 23.9882 9.00026C24.3035 9.79217 24.3768 10.6598 24.199 11.4934C24.0211 12.327 23.6 13.0891 22.989 13.6834C22.378 14.2777 21.6044 14.6774 20.7662 14.832C19.928 14.9866 19.0627 14.8891 18.2799 14.552C17.4971 14.2148 16.8318 13.653 16.3683 12.9377C15.9047 12.2224 15.6637 11.3857 15.6757 10.5335C15.7112 9.39732 16.1865 8.31936 17.0014 7.52685C17.8162 6.73434 18.907 6.28922 20.0437 6.28534V6.28534ZM19.9801 8.66741C19.4585 8.67764 18.9616 8.89174 18.5959 9.26384C18.2302 9.63594 18.0247 10.1365 18.0236 10.6582C18.0401 11.179 18.2629 11.672 18.6429 12.0286C19.0229 12.3852 19.5289 12.5762 20.0498 12.5597C20.5706 12.5432 21.0636 12.3204 21.4202 11.9404C21.7768 11.5604 21.9678 11.0543 21.9513 10.5335C21.9464 9.54541 20.9975 8.65519 19.9801 8.66741Z" fill="black"/>
</svg>
