<svg width="40" height="40" viewBox="0 0 40 40" fill="none" xmlns="http://www.w3.org/2000/svg">
<path d="M0.000759299 19.9417C0.000759299 18.4579 0.000759299 16.974 0.000759299 15.4902C-0.00962308 14.9749 0.0865661 14.4631 0.283303 13.9867C0.48004 13.5104 0.773076 13.0798 1.14404 12.722C1.43101 12.4172 1.66015 12.0628 1.82027 11.676C5.22579 3.99902 13.8028 -0.917094 22.1123 0.143482C29.6336 1.10432 35.0046 5.10095 38.2861 11.9144C38.3616 12.1417 38.4815 12.3517 38.6388 12.5323C39.7991 13.5053 40.0205 14.7896 39.9986 16.2127C39.9597 18.8763 39.9743 21.5399 39.9986 24.2035C39.9986 25.4514 39.6653 26.5168 38.7191 27.3657C38.5141 27.5835 38.3531 27.8387 38.2447 28.1174C34.7298 35.7555 27.2473 40.4527 18.8673 39.8981C11.0419 39.3799 5.40094 35.359 1.8519 28.3825C1.60546 27.9054 1.30511 27.4582 0.956735 27.0495C0.331208 26.3383 -0.00852504 25.4205 0.00318676 24.4735C0.00480844 22.9621 0.00400265 21.4515 0.000759299 19.9417ZM19.996 20.2847C19.5874 21.0826 19.2663 21.6956 18.9598 22.3183C18.6752 22.8972 18.4246 23.4883 17.6195 23.4689C16.8629 23.4494 16.627 22.8826 16.3545 22.3377L14.1774 18.0127C13.922 18.4384 13.7396 18.7036 13.5961 18.9857C12.9782 20.202 12.4212 21.445 11.7376 22.6199C11.6116 22.8237 11.444 22.9986 11.2457 23.1331C11.0474 23.2677 10.823 23.3589 10.5871 23.4007C10.2319 23.4178 9.74298 23.0018 9.50945 22.6467C9.04971 21.9485 8.72862 21.1628 8.2932 20.2871C7.83832 21.1896 7.47344 21.9899 7.05261 22.7342C6.60503 23.5418 5.73176 23.734 5.16985 23.1599C4.95352 22.9081 4.7734 22.6272 4.6347 22.3256C3.9244 20.9853 3.22627 19.6498 2.5257 18.2949C2.36272 20.4331 2.34084 22.5153 2.37246 24.5951C2.38462 25.4708 2.82734 25.8114 3.83197 25.8114C14.6145 25.8114 25.3986 25.8114 36.1844 25.8114C37.2815 25.8114 37.6439 25.4319 37.6439 24.3227C37.6585 22.6588 37.6439 20.9926 37.6439 19.3263V18.3338C36.705 19.7495 36.0093 21.192 35.2114 22.5761C34.99 22.9605 34.4646 23.3861 34.073 23.391C33.6813 23.3959 33.1754 22.9726 32.9224 22.6004C32.4578 21.9169 32.1416 21.1409 31.7061 20.2774C31.2707 21.1434 30.9594 21.9388 30.4899 22.6296C30.2466 22.9994 29.7261 23.3837 29.3174 23.4007C28.9671 23.4129 28.4685 22.9848 28.2617 22.6223C27.5903 21.4426 27.026 20.1898 26.4081 18.9857C26.2524 18.6865 26.053 18.4068 25.8559 18.0881C25.7807 18.163 25.7124 18.2444 25.6516 18.3314C24.9738 19.6822 24.2967 21.0339 23.6205 22.3864C23.3456 22.9361 23.0926 23.4883 22.3264 23.464C21.5601 23.4397 21.3217 22.9045 21.0517 22.3475C20.7331 21.7029 20.3998 21.0704 19.996 20.2798V20.2847ZM37.639 17.0568C37.639 16.8135 37.639 16.6043 37.639 16.3951C37.639 14.2837 37.5101 14.1426 35.3768 14.1426C25.2284 14.1426 15.0799 14.1694 4.93146 14.1231C2.17542 14.111 2.28002 14.5464 2.38218 16.974C2.38218 16.9911 2.41624 17.0081 2.4357 17.0251C3.58871 16.1762 4.13846 16.31 4.82687 17.6211C5.17715 18.2827 5.51283 18.9492 5.91663 19.7301C6.36421 18.8325 6.69746 18.0127 7.17181 17.2976C7.40289 16.9473 7.90156 16.5678 8.28103 16.5678C8.6605 16.5678 9.14458 16.9497 9.37323 17.2976C9.82878 18.0746 10.2413 18.8761 10.6089 19.6985C10.9665 18.9955 11.273 18.4068 11.5698 17.8157C12.3531 16.2613 12.8274 16.1324 14.2456 17.0981C15.1723 16.1737 15.9045 16.2856 16.5127 17.4484C16.8702 18.1392 17.2132 18.8374 17.6389 19.6839C17.9624 19.0514 18.1789 18.5649 18.4489 18.1076C18.826 17.463 18.9354 16.5313 19.9595 16.5046C20.9836 16.4778 21.1174 17.4168 21.492 18.0638C21.7669 18.5503 22.0028 19.0368 22.3264 19.6717L23.3456 17.6697C24.0413 16.2905 24.5959 16.164 25.8413 17.1005C26.863 16.1519 27.6219 16.2783 28.2568 17.5068C28.6095 18.1903 28.9525 18.8811 29.3636 19.696C29.8039 18.8203 30.1274 18.0298 30.5799 17.3316C30.8231 16.9716 31.3096 16.5435 31.6575 16.5581C32.0637 16.5751 32.5721 16.9667 32.8227 17.3389C33.3092 18.0444 33.6181 18.8544 34.0584 19.7252C34.4622 18.9468 34.7881 18.3046 35.1311 17.6624C35.8755 16.2929 36.3644 16.1543 37.639 17.0519V17.0568ZM27.116 11.766C26.5979 8.55268 23.837 3.00898 21.2634 2.73654V11.766H27.116ZM21.239 37.232C23.511 36.8866 26.7657 31.8318 27.0965 28.2196H21.239V37.232ZM12.7715 28.2317C13.6545 31.2894 14.6956 34.1622 17.0308 36.3539C17.4832 36.7796 18.0816 37.0496 18.8138 37.5215C18.8138 34.4979 18.8138 31.7856 18.8138 29.0709C18.8138 28.8058 18.7822 28.5406 18.7627 28.2317H12.7715ZM18.7603 2.70735C15.9167 3.32278 13.1655 9.09757 12.9223 11.7514H18.7603V2.70735ZM35.6103 11.8001C33.3797 7.7986 30.3123 5.10338 25.9849 3.42008C27.6385 5.79869 28.8292 8.46745 29.495 11.2868C29.548 11.4111 29.6307 11.5205 29.7359 11.6054C29.8411 11.6902 29.9655 11.7479 30.0982 11.7733C31.874 11.8074 33.6522 11.7904 35.6103 11.7904V11.8001ZM13.4744 3.71928C10.3122 4.40281 5.29147 9.07081 4.58604 11.7733H10.086L13.4744 3.71928ZM26.1989 36.4609C30.3342 34.8214 33.3992 32.114 35.5738 28.2123H29.709C29.2371 29.6207 28.8479 31.0486 28.2763 32.3986C27.7047 33.7487 26.953 35.0233 26.2087 36.4512L26.1989 36.4609ZM13.5815 36.3928C12.696 34.3787 11.8106 32.4083 10.969 30.4186C10.6673 29.7107 10.6844 28.6647 10.176 28.3023C9.66757 27.9398 8.66537 28.1879 7.8821 28.1831C6.76071 28.1831 5.63689 28.1831 4.36955 28.1831C6.588 32.1213 9.63594 34.7995 13.5912 36.3831L13.5815 36.3928Z" fill="black"/>
</svg>
