<svg width="50" height="50" viewBox="0 0 50 50" fill="none" xmlns="http://www.w3.org/2000/svg">
<path d="M0.000949124 24.9271C0.000949124 23.0723 0.000949124 21.2176 0.000949124 19.3628C-0.0120289 18.7187 0.108208 18.0788 0.354129 17.4834C0.60005 16.888 0.966345 16.3497 1.43005 15.9025C1.78876 15.5216 2.07519 15.0785 2.27534 14.595C6.53224 4.99877 17.2536 -1.14637 27.6404 0.179352C37.042 1.38041 43.7558 6.37618 47.8576 14.893C47.952 15.1771 48.1019 15.4396 48.2985 15.6653C49.7489 16.8816 50.0256 18.4871 49.9982 20.2658C49.9496 23.5953 49.9678 26.9248 49.9982 30.2543C49.9982 31.8142 49.5817 33.146 48.3988 34.2072C48.1426 34.4793 47.9413 34.7983 47.8059 35.1467C43.4122 44.6943 34.0592 50.5658 23.5842 49.8726C13.8024 49.2249 6.75117 44.1987 2.31487 35.4782C2.00682 34.8818 1.63138 34.3227 1.19592 33.8119C0.41401 32.9229 -0.0106563 31.7757 0.00398346 30.5919C0.00601055 28.7026 0.00500331 26.8144 0.000949124 24.9271ZM24.995 25.3559C24.4842 26.3532 24.0828 27.1194 23.6997 27.8978C23.344 28.6215 23.0308 29.3604 22.0243 29.3361C21.0787 29.3117 20.7837 28.6033 20.4432 27.9222L17.7218 22.5159C17.4025 23.048 17.1745 23.3795 16.9951 23.7322C16.2228 25.2525 15.5265 26.8063 14.672 28.2749C14.5145 28.5296 14.3049 28.7482 14.0571 28.9164C13.8093 29.0846 13.5287 29.1986 13.2338 29.2509C12.7899 29.2722 12.1787 28.7523 11.8868 28.3083C11.3121 27.4357 10.9108 26.4535 10.3665 25.3589C9.7979 26.487 9.3418 27.4874 8.81577 28.4178C8.25629 29.4273 7.1647 29.6675 6.46231 28.9499C6.1919 28.6351 5.96675 28.284 5.79337 27.907C4.9055 26.2316 4.03283 24.5623 3.15713 22.8686C2.9534 25.5413 2.92605 28.1441 2.96558 30.7439C2.98078 31.8385 3.53418 32.2642 4.78996 32.2642C18.2681 32.2642 31.7483 32.2642 45.2305 32.2642C46.6018 32.2642 47.0549 31.7899 47.0549 30.4033C47.0731 28.3235 47.0549 26.2407 47.0549 24.1579V22.9173C45.8812 24.6869 45.0116 26.49 44.0142 28.2202C43.7375 28.7006 43.0808 29.2327 42.5912 29.2388C42.1017 29.2448 41.4692 28.7158 41.153 28.2506C40.5722 27.3961 40.1769 26.4262 39.6327 25.3467C39.0884 26.4292 38.6992 27.4235 38.1123 28.287C37.8083 28.7492 37.1576 29.2296 36.6468 29.2509C36.2089 29.2661 35.5856 28.731 35.3271 28.2779C34.4879 26.8032 33.7825 25.2373 33.0102 23.7322C32.8156 23.3582 32.5662 23.0085 32.3199 22.6102C32.2259 22.7037 32.1405 22.8055 32.0645 22.9142C31.2172 24.6028 30.3709 26.2924 29.5256 27.983C29.182 28.6702 28.8658 29.3604 27.908 29.33C26.9502 29.2996 26.6522 28.6306 26.3147 27.9343C25.9163 27.1286 25.4998 26.338 24.995 25.3498V25.3559ZM47.0488 21.3209C47.0488 21.0169 47.0488 20.7554 47.0488 20.4939C47.0488 17.8546 46.8877 17.6782 44.221 17.6782C31.5354 17.6782 18.8499 17.7117 6.16433 17.6539C2.71928 17.6387 2.85002 18.183 2.97773 21.2176C2.97773 21.2388 3.0203 21.2601 3.04463 21.2814C4.48589 20.2202 5.17308 20.3875 6.03358 22.0264C6.47143 22.8534 6.89104 23.6866 7.39578 24.6626C7.95526 23.5406 8.37183 22.5159 8.96476 21.622C9.25362 21.1841 9.87695 20.7098 10.3513 20.7098C10.8256 20.7098 11.4307 21.1872 11.7165 21.622C12.286 22.5933 12.8016 23.5952 13.2612 24.6231C13.7082 23.7443 14.0913 23.0085 14.4622 22.2696C15.4413 20.3266 16.0343 20.1655 17.8069 21.3726C18.9654 20.2172 19.8807 20.3571 20.6408 21.8105C21.0878 22.674 21.5165 23.5467 22.0486 24.6048C22.453 23.8143 22.7237 23.2061 23.0612 22.6345C23.5325 21.8287 23.6693 20.6642 24.9494 20.6307C26.2295 20.5973 26.3968 21.771 26.865 22.5798C27.2086 23.1879 27.5036 23.796 27.908 24.5896L29.182 22.0872C30.0516 20.3631 30.7449 20.205 32.3017 21.3757C33.5788 20.1898 34.5274 20.3479 35.321 21.8835C35.7619 22.7379 36.1907 23.6014 36.7045 24.62C37.2549 23.5254 37.6593 22.5372 38.2248 21.6645C38.5289 21.2145 39.1371 20.6794 39.5719 20.6976C40.0797 20.7189 40.7151 21.2084 41.0283 21.6737C41.6365 22.5554 42.0226 23.568 42.573 24.6565C43.0777 23.6835 43.4852 22.8808 43.9139 22.0781C44.8443 20.3662 45.4555 20.1929 47.0488 21.3149V21.3209ZM33.895 14.7075C33.2473 10.6909 29.7962 3.76123 26.5792 3.42068V14.7075H33.895ZM26.5488 46.54C29.3888 46.1082 33.4571 39.7898 33.8707 35.2744H26.5488V46.54ZM15.9643 35.2896C17.0681 39.1117 18.3695 42.7027 21.2885 45.4423C21.854 45.9745 22.602 46.312 23.5173 46.9019C23.5173 43.1223 23.5173 39.732 23.5173 36.3387C23.5173 36.0072 23.4777 35.6758 23.4534 35.2896H15.9643ZM23.4504 3.38419C19.8959 4.15347 16.4569 11.372 16.1528 14.6893H23.4504V3.38419ZM44.5129 14.7501C41.7246 9.74825 37.8904 6.37922 32.4811 4.2751C34.5481 7.24836 36.0366 10.5843 36.8687 14.1085C36.935 14.2639 37.0384 14.4007 37.1699 14.5067C37.3014 14.6127 37.4569 14.6848 37.6228 14.7167C39.8425 14.7592 42.0652 14.7379 44.5129 14.7379V14.7501ZM16.8431 4.6491C12.8902 5.50352 6.61434 11.3385 5.73255 14.7167H12.6074L16.8431 4.6491ZM32.7487 45.5761C37.9178 43.5267 41.749 40.1425 44.4673 35.2653H37.1363C36.5464 37.0259 36.0599 38.8107 35.3454 40.4983C34.6308 42.1858 33.6913 43.7791 32.7608 45.564L32.7487 45.5761ZM16.9768 45.491C15.8701 42.9733 14.7633 40.5104 13.7112 38.0232C13.3342 37.1384 13.3554 35.8309 12.72 35.3778C12.0845 34.9248 10.8317 35.2349 9.85263 35.2288C8.45089 35.2288 7.04611 35.2288 5.46194 35.2288C8.23501 40.1516 12.0449 43.4994 16.989 45.4788L16.9768 45.491Z" fill="black"/>
</svg>
