<svg width="51" height="51" viewBox="0 0 51 51" fill="none" xmlns="http://www.w3.org/2000/svg">
<path d="M50.9239 25.9587C50.9239 31.9303 50.8783 37.905 50.9543 43.8796C50.9755 45.6869 50.1797 46.8017 48.7035 47.5944C45.9243 49.0858 42.8686 49.6295 39.8008 50.0244C30.0809 51.3001 20.3611 51.3244 10.6564 49.7723C8.46712 49.3973 6.31603 48.826 4.22919 48.0652C1.62305 47.154 1.00038 46.0544 1.00038 43.2964C1.00038 31.5385 1.02771 19.7835 0.970001 8.02556C0.970001 6.30637 1.6352 5.06102 3.09621 4.50212C5.50795 3.57266 7.98044 2.62498 10.5137 2.22404C21.1677 0.485592 32.039 0.560558 42.6681 2.44577C44.8247 2.83456 46.9205 3.70631 48.9587 4.57198C50.3802 5.17947 50.9907 6.39446 50.9695 8.04683C50.8905 14.0124 50.9239 19.984 50.9239 25.9587ZM47.7832 35.9063C33.4439 39.3948 18.4773 39.3948 4.13806 35.9063C4.13806 38.397 4.19577 40.9637 4.10769 43.5273C4.07427 44.5266 4.48129 45.046 5.32267 45.2556C7.44888 45.8114 9.52954 46.4949 11.6801 46.8168C20.5481 48.1347 29.5561 48.2144 38.4461 47.0538C41.2314 46.6953 43.9621 45.8722 46.6958 45.1675C47.121 45.0582 47.7164 44.4567 47.7285 44.0649C47.8348 41.3099 47.7923 38.555 47.7923 35.9063H47.7832ZM4.14717 10.9567V18.0552C4.14717 19.8777 4.14717 20.0721 5.93623 20.4852C9.01013 21.2111 12.1083 21.9644 15.243 22.3077C23.0193 23.1855 30.8739 23.108 38.6313 22.0768C41.3407 21.7093 43.9955 20.9195 46.6532 20.2543C47.0785 20.145 47.7072 19.6256 47.7164 19.2793C47.8044 16.4666 47.765 13.6479 47.765 10.9689C33.4313 14.4306 18.4789 14.4264 4.14717 10.9567ZM4.14717 23.4346C4.14717 25.7491 4.25348 28.1973 4.10465 30.6333C4.0196 32.0366 4.63013 32.6775 5.80866 32.9539C8.26596 33.531 10.7111 34.2327 13.2049 34.5486C22.1304 35.7259 31.1762 35.6584 40.0832 34.3481C42.3401 34.0079 44.5453 33.3032 46.7504 32.6745C47.1575 32.5591 47.7285 32.0123 47.7376 31.6509C47.8196 28.8716 47.7832 26.0862 47.7832 23.4497C33.4433 26.912 18.4847 26.9068 4.14717 23.4346V23.4346ZM4.45092 7.18723L4.38106 7.57602C6.38881 8.11365 8.36619 8.82745 10.4104 9.15854C20.7866 10.8652 31.3732 10.8508 41.7447 9.11601C43.7069 8.79101 45.6053 8.09543 47.5341 7.57299L47.5159 6.98676C45.906 6.51899 44.3205 5.9115 42.6803 5.60472C32.2618 3.66379 21.8039 3.70631 11.3429 5.20377C8.97368 5.54397 6.57713 5.99047 4.45092 7.18723Z" fill="black"/>
<path d="M11.355 40.5354C11.9071 40.5351 12.4375 40.7495 12.8343 41.1333C13.2311 41.517 13.4631 42.04 13.4813 42.5918C13.4883 43.1261 13.2882 43.6424 12.923 44.0326C12.5578 44.4227 12.0558 44.6564 11.5221 44.6846C11.2484 44.7031 10.9738 44.666 10.7149 44.5754C10.456 44.4848 10.2181 44.3426 10.0157 44.1575C9.81327 43.9724 9.65047 43.7482 9.53715 43.4984C9.42384 43.2486 9.36235 42.9784 9.3564 42.7041C9.3417 42.4297 9.38209 42.155 9.47518 41.8964C9.56828 41.6378 9.7122 41.4005 9.89846 41.1984C10.0847 40.9963 10.3096 40.8335 10.5597 40.7196C10.8099 40.6057 11.0803 40.5431 11.355 40.5354V40.5354Z" fill="black"/>
<path d="M13.4843 17.709C13.4777 17.9831 13.4166 18.2533 13.3048 18.5037C13.1929 18.7541 13.0324 18.9798 12.8327 19.1677C12.6329 19.3556 12.3978 19.5019 12.141 19.5983C11.8842 19.6946 11.6109 19.739 11.3368 19.7289C11.0627 19.7221 10.7928 19.66 10.5433 19.5461C10.2938 19.4323 10.07 19.2692 9.88525 19.0665C9.7005 18.8639 9.55868 18.626 9.46831 18.3671C9.37795 18.1082 9.34091 17.8337 9.35944 17.5601C9.37766 17.0249 9.6046 16.518 9.99173 16.1479C10.3789 15.7778 10.8954 15.5738 11.431 15.5797C11.9827 15.5986 12.5054 15.8314 12.8886 16.2288C13.2718 16.6261 13.4854 17.1569 13.4843 17.709V17.709Z" fill="black"/>
<path d="M11.4158 28.0576C11.9702 28.0718 12.497 28.3021 12.884 28.6993C13.271 29.0965 13.4875 29.6292 13.4873 30.1838C13.4818 30.4571 13.4224 30.7267 13.3125 30.9771C13.2025 31.2275 13.0443 31.4537 12.8467 31.6427C12.6492 31.8318 12.4163 31.98 12.1614 32.0789C11.9064 32.1777 11.6345 32.2253 11.3611 32.2189C10.8264 32.2093 10.3171 31.9893 9.94348 31.6066C9.5699 31.224 9.36224 30.7094 9.36552 30.1747C9.35741 29.9001 9.4044 29.6266 9.50372 29.3705C9.60304 29.1143 9.75268 28.8807 9.94379 28.6833C10.1349 28.486 10.3636 28.3289 10.6165 28.2215C10.8693 28.114 11.1411 28.0582 11.4158 28.0576V28.0576Z" fill="black"/>
</svg>
