<svg width="41" height="41" viewBox="0 0 41 41" fill="none" xmlns="http://www.w3.org/2000/svg">
<path d="M40.9331 20.9617C40.9331 25.739 40.8967 30.5187 40.9574 35.2985C40.9744 36.7443 40.3378 37.6361 39.1568 38.2703C36.9334 39.4634 34.4889 39.8984 32.0346 40.2143C24.2587 41.2349 16.4829 41.2543 8.71914 40.0126C6.9677 39.7126 5.24682 39.2555 3.57735 38.6469C1.49244 37.918 0.9943 37.0383 0.9943 34.8319C0.9943 25.4255 1.01617 16.0216 0.970001 6.6152C0.970001 5.23985 1.50216 4.24356 2.67097 3.79645C4.60036 3.05288 6.57835 2.29474 8.60494 1.97398C17.1282 0.583225 25.8252 0.643198 34.3285 2.15137C36.0538 2.4624 37.7304 3.1598 39.3609 3.85234C40.4982 4.33833 40.9866 5.31032 40.9696 6.63221C40.9064 11.4047 40.9331 16.182 40.9331 20.9617ZM38.4205 28.9198C26.9491 31.7106 14.9759 31.7106 3.50445 28.9198C3.50445 30.9124 3.55062 32.9657 3.48015 35.0166C3.45342 35.816 3.77903 36.2316 4.45213 36.3992C6.1531 36.8439 7.81763 37.3907 9.53804 37.6482C16.6324 38.7025 23.8389 38.7663 30.9508 37.8378C33.1791 37.551 35.3637 36.8925 37.5506 36.3288C37.8908 36.2413 38.3671 35.7602 38.3768 35.4467C38.4619 33.2427 38.4278 31.0387 38.4278 28.9198H38.4205ZM3.51174 8.96012V14.6389C3.51174 16.0969 3.51174 16.2524 4.94299 16.5829C7.40211 17.1637 9.88066 17.7663 12.3884 18.0409C18.6094 18.7432 24.8931 18.6811 31.0991 17.8562C33.2666 17.5622 35.3904 16.9304 37.5166 16.3982C37.8568 16.3107 38.3598 15.8952 38.3671 15.6182C38.4376 13.3681 38.406 11.1131 38.406 8.96983C26.939 11.7392 14.9771 11.7359 3.51174 8.96012ZM3.51174 18.9424C3.51174 20.794 3.59679 22.7526 3.47772 24.7014C3.40968 25.824 3.8981 26.3368 4.84093 26.5579C6.80677 27.0196 8.76288 27.5809 10.7579 27.8336C17.8983 28.7755 25.135 28.7215 32.2606 27.6732C34.0661 27.4011 35.8302 26.8373 37.5944 26.3343C37.92 26.242 38.3768 25.8046 38.3841 25.5154C38.4497 23.292 38.4205 21.0637 38.4205 18.9545C26.9486 21.7244 14.9817 21.7202 3.51174 18.9424V18.9424ZM3.75474 5.94453L3.69885 6.25557C5.30505 6.68567 6.88695 7.25671 8.52232 7.52158C16.8233 8.88687 25.2925 8.87538 33.5898 7.48756C35.1595 7.22756 36.6783 6.67109 38.2213 6.25314L38.2067 5.78416C36.9188 5.40994 35.6504 4.92395 34.3382 4.67852C26.0034 3.12578 17.6371 3.1598 9.26832 4.35777C7.37295 4.62993 5.45571 4.98713 3.75474 5.94453Z" fill="black"/>
<path d="M9.27803 32.6231C9.71964 32.6229 10.144 32.7944 10.4615 33.1014C10.7789 33.4084 10.9645 33.8268 10.979 34.2682C10.9846 34.6957 10.8246 35.1087 10.5324 35.4208C10.2402 35.733 9.8386 35.9199 9.41168 35.9424C9.19274 35.9573 8.97306 35.9276 8.76592 35.8551C8.55879 35.7826 8.3685 35.6689 8.20655 35.5208C8.04461 35.3727 7.91437 35.1933 7.82372 34.9935C7.73306 34.7936 7.68387 34.5775 7.67912 34.3581C7.66735 34.1385 7.69966 33.9188 7.77414 33.7119C7.84862 33.5051 7.96376 33.3152 8.11277 33.1535C8.26178 32.9918 8.44164 32.8616 8.64177 32.7705C8.8419 32.6794 9.05823 32.6293 9.27803 32.6231V32.6231Z" fill="black"/>
<path d="M10.9815 14.3619C10.9761 14.5813 10.9273 14.7974 10.8378 14.9977C10.7483 15.198 10.62 15.3786 10.4601 15.5289C10.3003 15.6792 10.1123 15.7963 9.90683 15.8734C9.70141 15.9505 9.48273 15.986 9.26347 15.9779C9.04418 15.9725 8.82824 15.9227 8.62867 15.8317C8.4291 15.7406 8.25002 15.6101 8.10222 15.448C7.95442 15.2859 7.84096 15.0956 7.76867 14.8885C7.69638 14.6813 7.66675 14.4617 7.68157 14.2429C7.69615 13.8147 7.8777 13.4092 8.1874 13.1131C8.4971 12.817 8.91037 12.6539 9.3388 12.6585C9.78016 12.6737 10.1983 12.8599 10.5049 13.1778C10.8114 13.4957 10.9823 13.9203 10.9815 14.3619V14.3619Z" fill="black"/>
<path d="M9.32664 22.6408C9.77014 22.6522 10.1916 22.8364 10.5012 23.1542C10.8108 23.472 10.984 23.8981 10.9839 24.3418C10.9795 24.5605 10.9319 24.7762 10.844 24.9764C10.756 25.1767 10.6294 25.3577 10.4714 25.5089C10.3134 25.6602 10.127 25.7788 9.92309 25.8579C9.71914 25.937 9.50159 25.975 9.2829 25.9699C8.85514 25.9622 8.44764 25.7862 8.14878 25.4801C7.84992 25.1739 7.68379 24.7623 7.68642 24.3345C7.67992 24.1148 7.71752 23.8961 7.79697 23.6911C7.87643 23.4862 7.99614 23.2993 8.14904 23.1414C8.30193 22.9836 8.48491 22.8579 8.68717 22.7719C8.88943 22.6859 9.10686 22.6414 9.32664 22.6408V22.6408Z" fill="black"/>
</svg>
