<svg width="51" height="57" viewBox="0 0 51 57" fill="none" xmlns="http://www.w3.org/2000/svg">
<path d="M43.774 43.5718C43.2238 45.6307 42.9919 47.5548 42.2029 49.2089C40.9087 51.9288 38.5106 53.306 35.4931 53.5137C34.6349 53.5725 33.7629 53.5656 32.9082 53.5517C31.178 53.5206 29.7211 53.4825 28.4407 55.3235C26.8109 57.6662 23.2224 57.3997 21.3053 55.2197C20.8437 54.7061 20.4937 54.1022 20.2777 53.4463C20.0616 52.7904 19.9842 52.0968 20.0502 51.4094C20.1163 50.722 20.3244 50.0558 20.6613 49.453C20.9983 48.8502 21.4568 48.324 22.0078 47.9077C24.309 46.1775 27.6414 46.7381 29.1259 49.1777C29.6208 49.9909 30.1156 50.2954 31.0499 50.2158C32.5102 50.1224 33.9809 50.2159 35.4412 50.1432C36.4007 50.1002 37.3208 49.7491 38.0651 49.142C38.8093 48.5348 39.3381 47.704 39.573 46.7727C37.8428 46.9388 36.2233 46.79 34.9049 45.4923C34.3808 44.978 33.9688 44.3607 33.6949 43.6795C33.4209 42.9982 33.2909 42.2676 33.3131 41.5336C33.2992 37.268 33.2992 33.0001 33.3131 28.7299C33.3131 26.145 34.6799 24.1898 36.8185 23.5669C39.2166 22.8748 41.234 23.7157 42.7635 25.9892C42.9993 26.3076 43.3466 26.5251 43.7359 26.5983C44.6633 26.7194 45.6046 26.716 46.6392 26.7644C46.9403 18.5355 44.0335 11.7149 37.168 7.13673C29.3578 1.9253 21.0838 1.81458 13.149 6.93258C6.05511 11.573 3.07912 18.4351 3.33519 26.799C4.37333 26.754 5.32149 26.7644 6.25235 26.6467C6.63889 26.5804 6.98415 26.3656 7.21436 26.0481C8.62276 23.8507 10.6229 22.9337 12.8999 23.5496C15.1768 24.1656 16.6475 26.0412 16.6683 28.633C16.6994 32.9413 16.7064 37.2496 16.6683 41.5578C16.6441 44.2812 15.2253 46.1325 12.8618 46.7485C10.6471 47.316 8.65044 46.354 7.19013 44.1566C6.95482 43.8106 6.31118 43.686 5.83018 43.5545C4.57404 43.2084 3.16217 43.1496 2.06867 42.5163C0.61182 41.6893 0.0131635 40.1183 0.0200844 38.4227C0.0200844 33.3427 -0.0768084 28.2524 0.155042 23.1794C0.587598 13.6251 7.42198 4.63829 16.4572 1.57579C26.2364 -1.73932 35.0087 0.191615 42.4763 7.22324C47.667 12.1302 49.9993 18.4178 50.0028 25.5636C50.0028 29.617 50.0028 33.668 50.0028 37.7167C50.0028 41.6236 48.1999 43.4368 44.2515 43.5406C44.0919 43.5411 43.9324 43.5515 43.774 43.5718V43.5718ZM13.3567 35.0487C13.3567 32.9724 13.3567 30.9239 13.3567 28.8614C13.3567 27.4773 12.7407 26.709 11.6853 26.6848C10.6298 26.6606 10.0242 27.4946 10.0208 28.8545C10.0208 33.0232 10.0208 37.193 10.0208 41.364C10.0208 42.7482 10.6298 43.5164 11.6818 43.5164C12.7338 43.5164 13.3428 42.7932 13.3532 41.3675C13.3532 39.2566 13.3393 37.1561 13.3393 35.0487H13.3567ZM40.0021 35.1837C40.0021 33.0797 40.0021 30.9758 40.0021 28.8718C40.0021 27.4876 39.3792 26.6986 38.3411 26.6883C37.3652 26.6883 36.6766 27.5465 36.6731 28.8753C36.6593 33.0416 36.6593 37.208 36.6731 41.3744C36.6731 42.8209 37.2545 43.513 38.3445 43.513C39.4346 43.513 39.9952 42.7897 40.0056 41.3675C39.9952 39.305 39.9848 37.2461 39.9848 35.1837H40.0021ZM6.58455 40.1321V30.0968C3.8162 29.8961 3.33865 30.3356 3.33865 32.9275V37.3153C3.32135 39.9245 3.83696 40.3916 6.56725 40.1321H6.58455ZM43.4902 30.0587V40.1598C46.2171 40.3293 46.6773 39.9003 46.6808 37.3326V32.9448C46.66 30.3183 46.224 29.9134 43.4729 30.0587H43.4902ZM26.6482 51.9115C26.6602 51.481 26.5006 51.0635 26.2047 50.7507C25.9088 50.4379 25.5007 50.2555 25.0703 50.2435C24.6398 50.2316 24.2223 50.3911 23.9095 50.6871C23.5967 50.983 23.4143 51.3911 23.4023 51.8215C23.3816 52.8596 23.9595 53.4133 24.9353 53.531C25.1536 53.5383 25.3711 53.5021 25.5752 53.4243C25.7793 53.3464 25.9658 53.2287 26.1237 53.0778C26.2816 52.927 26.4079 52.7461 26.495 52.5458C26.5821 52.3455 26.6283 52.1299 26.6309 51.9115H26.6482Z" fill="black"/>
</svg>
