<svg width="40" height="34" viewBox="0 0 40 34" fill="none" xmlns="http://www.w3.org/2000/svg">
<path d="M39.9821 29.7428H31.6568V33.3243H8.45593V29.8133H0.137941C-0.236503 24.5443 -0.153838 19.5234 4.43431 15.8884C4.80875 15.5917 5.20022 15.3121 5.65004 14.9839C4.25813 13.6259 3.34219 11.8545 3.03866 9.93375C2.43566 6.19661 4.58992 2.34277 8.19819 0.730713C11.5585 -0.771924 15.9035 0.198217 18.1866 3.01627C18.5975 3.52444 18.9695 3.78461 19.6187 3.65574C19.9173 3.60467 20.2223 3.60467 20.5208 3.65574C21.046 3.73355 21.3864 3.57065 21.7535 3.14514C25.3351 -1.00291 31.3067 -1.04912 34.9636 3.01384C37.8279 6.19417 37.806 11.2005 34.915 14.4417L34.4676 14.9279C35.2116 15.5577 35.9946 16.1169 36.6559 16.7977C38.7109 18.8573 39.8949 21.6284 39.9627 24.5371C40.0332 26.2269 39.9821 27.9216 39.9821 29.7428ZM29.4661 31.1822C29.4661 30.3336 29.4661 29.5264 29.4661 28.7167C29.4418 25.0695 27.8346 22.3098 24.7588 20.372C24.567 20.2356 24.3413 20.1551 24.1065 20.1392C23.8718 20.1233 23.6372 20.1727 23.4288 20.282C21.1481 21.2546 18.8528 21.2181 16.5502 20.282C16.2059 20.147 15.822 20.154 15.4828 20.3015C11.2983 22.6405 10.0607 26.7643 10.7196 31.1798L29.4661 31.1822ZM13.4842 12.2582C13.4713 13.5499 13.8414 14.8164 14.5477 15.898C15.254 16.9795 16.2648 17.8276 17.4526 18.3353C18.6404 18.8429 19.952 18.9873 21.2218 18.7503C22.4916 18.5133 23.6627 17.9054 24.5874 17.0034C25.5121 16.1014 26.1489 14.9458 26.4174 13.6823C26.6859 12.4187 26.5741 11.104 26.0962 9.90394C25.6182 8.70388 24.7955 7.67228 23.7318 6.93934C22.6681 6.20641 21.4112 5.80498 20.1196 5.7857C19.2584 5.77284 18.403 5.93029 17.6028 6.249C16.8026 6.56771 16.0732 7.0414 15.4566 7.64285C14.8401 8.24431 14.3484 8.96167 14.0099 9.75372C13.6714 10.5458 13.4927 11.3969 13.4842 12.2582V12.2582ZM16.4189 4.31467C14.165 1.92699 10.8266 1.49418 8.12282 3.19863C6.86797 4.00542 5.92611 5.21638 5.45303 6.63121C4.97995 8.04604 5.00398 9.57996 5.52116 10.9793C6.45727 13.5469 9.37746 15.4823 11.7335 15.1127C10.5616 10.3787 12.1371 6.80934 16.4189 4.32439V4.31467ZM28.3039 15.1881C29.8004 15.214 31.2605 14.7251 32.4397 13.8031C33.6188 12.8811 34.4455 11.582 34.7813 10.1234C35.4718 7.20566 33.9521 4.12987 31.1341 2.76826C28.6273 1.55253 25.3326 2.24064 23.6379 4.35357C27.9416 6.77529 29.4491 10.3957 28.3039 15.1979V15.1881ZM8.45349 27.5496C8.88143 23.635 10.8193 20.7221 14.2014 18.4706C13.472 18.0281 12.9006 17.3959 12.3146 17.3837C10.8728 17.3473 9.49659 17.1941 8.152 16.6543C7.80717 16.5307 7.42776 16.5464 7.09432 16.6981C3.204 18.8353 1.66974 22.7937 2.31408 27.5472L8.45349 27.5496ZM26.0888 18.6481C29.3056 20.744 31.1584 23.7128 31.6009 27.5229H37.8254C37.8254 26.4676 37.8789 25.4707 37.8254 24.4836C37.5993 21.0017 35.9532 18.383 32.9042 16.6786C32.6464 16.5351 32.238 16.5789 31.9316 16.6373C30.7548 16.8634 29.5682 17.391 28.4206 17.3083C27.183 17.233 26.6578 17.7849 26.0888 18.6578V18.6481Z" fill="black"/>
</svg>
