<svg width="50" height="42" viewBox="0 0 50 42" fill="none" xmlns="http://www.w3.org/2000/svg">
<path d="M49.9777 37.1785H39.5711V41.6554H10.5699V37.2666H0.172426C-0.295628 30.6804 -0.192297 24.4042 5.54289 19.8605C6.01094 19.4897 6.50027 19.1402 7.06255 18.7299C5.32266 17.0324 4.17773 14.8182 3.79833 12.4172C3.04458 7.74576 5.7374 2.92846 10.2477 0.913392C14.4481 -0.964904 19.8793 0.247771 22.7333 3.77034C23.2469 4.40555 23.7119 4.73076 24.5234 4.56968C24.8966 4.50584 25.2778 4.50584 25.651 4.56968C26.3075 4.66694 26.733 4.46331 27.1919 3.93143C31.6688 -1.25364 39.1334 -1.3114 43.7045 3.76729C47.2848 7.74272 47.2575 14.0007 43.6437 18.0521L43.0845 18.6599C44.0145 19.4471 44.9932 20.1462 45.8199 20.9972C48.3887 23.5716 49.8687 27.0355 49.9534 30.6713C50.0415 32.7836 49.9777 34.902 49.9777 37.1785ZM36.8326 38.9778C36.8326 37.917 36.8326 36.908 36.8326 35.8959C36.8022 31.3369 34.7932 27.8873 30.9485 25.465C30.7088 25.2945 30.4266 25.1938 30.1331 25.174C29.8397 25.1541 29.5465 25.2159 29.286 25.3525C26.4351 26.5682 23.566 26.5226 20.6878 25.3525C20.2573 25.1838 19.7776 25.1926 19.3535 25.3768C14.1229 28.3007 12.5759 33.4553 13.3995 38.9747L36.8326 38.9778ZM16.8552 15.3228C16.8392 16.9374 17.3018 18.5205 18.1846 19.8725C19.0675 21.2244 20.331 22.2845 21.8158 22.9191C23.3005 23.5536 24.94 23.7342 26.5272 23.4379C28.1145 23.1416 29.5784 22.3817 30.7343 21.2543C31.8901 20.1268 32.6861 18.6822 33.0217 17.1028C33.3574 15.5234 33.2177 13.88 32.6202 12.3799C32.0228 10.8798 30.9943 9.59035 29.6648 8.67418C28.3352 7.75801 26.764 7.25622 25.1495 7.23212C24.0729 7.21605 23.0038 7.41286 22.0035 7.81125C21.0033 8.20964 20.0916 8.80175 19.3208 9.55357C18.5501 10.3054 17.9355 11.2021 17.5124 12.1922C17.0892 13.1822 16.8659 14.2461 16.8552 15.3228V15.3228ZM20.5237 5.39334C17.7062 2.40873 13.5332 1.86773 10.1535 3.99828C8.58497 5.00677 7.40764 6.52048 6.81629 8.28902C6.22493 10.0576 6.25498 11.975 6.90145 13.7241C8.07159 16.9336 11.7218 19.3529 14.6669 18.8909C13.202 12.9734 15.1714 8.51167 20.5237 5.40549V5.39334ZM35.3798 18.9851C37.2506 19.0175 39.0756 18.4063 40.5496 17.2538C42.0235 16.1014 43.0568 14.4776 43.4766 12.6542C44.3397 9.00707 42.4402 5.16234 38.9176 3.46032C35.7841 1.94066 31.6658 2.8008 29.5474 5.44196C34.927 8.46912 36.8114 12.9947 35.3798 18.9973V18.9851ZM10.5669 34.437C11.1018 29.5437 13.5241 25.9026 17.7518 23.0882C16.84 22.5351 16.1258 21.7449 15.3933 21.7297C13.591 21.6841 11.8707 21.4926 10.19 20.8179C9.75896 20.6634 9.2847 20.683 8.8679 20.8726C4.005 23.5441 2.08718 28.4921 2.8926 34.434L10.5669 34.437ZM32.611 23.3101C36.632 25.93 38.948 29.641 39.5011 34.4036H47.2818C47.2818 33.0845 47.3487 31.8384 47.2818 30.6045C46.9991 26.2522 44.9415 22.9788 41.1302 20.8482C40.808 20.6689 40.2974 20.7236 39.9145 20.7966C38.4435 21.0792 36.9603 21.7388 35.5257 21.6354C33.9787 21.5412 33.3222 22.2311 32.611 23.3223V23.3101Z" fill="black"/>
</svg>
